<?xml version="1.0" encoding="UTF-8"?>
<svg version="1.1" xmlns="http://www.w3.org/2000/svg" width="1280" height="960">
<path d="M0 0 C1.22940308 -0.01450195 1.22940308 -0.01450195 2.48364258 -0.02929688 C10.25458711 0.07807369 15.81784915 2.88392528 21.3125 8.4375 C23.11022585 10.70706991 24.70382815 13.02449223 26.3125 15.4375 C26.70179688 14.92960937 27.09109375 14.42171875 27.4921875 13.8984375 C32.62009062 7.58898988 38.5347321 3.0300893 46.3125 0.4375 C49.22298781 0.26189193 52.08799369 0.16031131 55 0.125 C55.77794922 0.09599609 56.55589844 0.06699219 57.35742188 0.03710938 C63.37380547 -0.02812247 67.11172152 1.42402035 72.3125 4.4375 C72.3125 5.0975 72.3125 5.7575 72.3125 6.4375 C72.89773438 6.49421875 73.48296875 6.5509375 74.0859375 6.609375 C77.34190811 7.82036758 78.18131773 9.73216244 79.9375 12.6875 C80.82308594 14.11835938 80.82308594 14.11835938 81.7265625 15.578125 C86.35386073 25.24724112 85.59040356 37.26014054 85.5078125 47.70703125 C85.50407026 49.12334491 85.50122903 50.5396612 85.49923706 51.95597839 C85.49169575 55.63676432 85.47213225 59.3173858 85.4498291 62.99810791 C85.42551243 67.43951267 85.41654431 71.88097321 85.40492249 76.32242584 C85.38569961 83.02756402 85.34731189 89.73234325 85.3125 96.4375 C76.0725 96.4375 66.8325 96.4375 57.3125 96.4375 C57.26351562 92.06628906 57.21453125 87.69507813 57.1640625 83.19140625 C57.11946267 79.6856097 57.07297061 76.17984949 57.02520752 72.67409515 C56.97545732 68.98467108 56.92896906 65.29527463 56.890625 61.60571289 C56.85349936 58.04589375 56.8070694 54.48630204 56.75443649 50.92667961 C56.72713837 48.92121249 56.70924717 46.91562434 56.69155884 44.91004944 C56.58325575 38.14791304 56.30598614 31.92631013 54.3125 25.4375 C51.08382661 22.94261601 49.30918984 22.39681878 45.25 22.5625 C39.67649784 24.22269213 36.67000909 26.73171305 33.3125 31.4375 C28.45360337 43.90197916 29.75117101 58.69071485 29.625 71.8125 C29.59176946 74.20574721 29.55727467 76.59897721 29.52148438 78.9921875 C29.43490197 84.80730375 29.37427788 90.62185803 29.3125 96.4375 C20.0725 96.4375 10.8325 96.4375 1.3125 96.4375 C1.29791748 94.46958496 1.28333496 92.50166992 1.26831055 90.47412109 C1.21658998 83.96005092 1.15128543 77.44622676 1.07678509 70.93237877 C1.03212556 66.98439972 0.99285996 63.03652282 0.96606445 59.08837891 C0.93998701 55.27563174 0.89955389 51.46327855 0.84931374 47.65077591 C0.8326749 46.19883768 0.82114206 44.74683134 0.81488609 43.29481125 C0.80521195 41.25520629 0.77711634 39.21660243 0.74487305 37.17724609 C0.72821846 35.43850723 0.72821846 35.43850723 0.71122742 33.66464233 C0.1858673 29.41258491 -1.05799419 25.77602263 -4.4375 23 C-7.71887857 22.17965536 -10.39113863 22.80136009 -13.6875 23.4375 C-15.0796875 23.56125 -15.0796875 23.56125 -16.5 23.6875 C-18.89904205 24.22771764 -18.89904205 24.22771764 -19.8125 26.625 C-20.10125 27.553125 -20.39 28.48125 -20.6875 29.4375 C-21.203125 30.406875 -21.71875 31.37625 -22.25 32.375 C-24.50475622 37.17861108 -24.80806638 41.91261582 -24.89282227 47.16748047 C-24.91276749 48.26816864 -24.93271271 49.36885681 -24.95326233 50.50289917 C-24.96997482 51.67498932 -24.98668732 52.84707947 -25.00390625 54.0546875 C-25.02468735 55.26698029 -25.04546844 56.47927307 -25.06687927 57.728302 C-25.13210982 61.5896453 -25.19113651 65.45105491 -25.25 69.3125 C-25.29321041 71.93490261 -25.3368255 74.55729859 -25.38085938 77.1796875 C-25.48852324 83.59889143 -25.58779427 90.01814781 -25.6875 96.4375 C-34.9275 96.4375 -44.1675 96.4375 -53.6875 96.4375 C-53.71005941 84.34634796 -53.72841998 72.25520981 -53.73931217 60.16404152 C-53.7445389 54.55010829 -53.75163276 48.93619016 -53.76293945 43.32226562 C-53.77377576 37.90823594 -53.77977842 32.49422081 -53.78237724 27.08018112 C-53.78423014 25.01084539 -53.78784819 22.9415105 -53.79323006 20.87218094 C-53.80045032 17.98198959 -53.80149052 15.09185901 -53.80102539 12.20166016 C-53.80462067 11.33923203 -53.80821594 10.47680389 -53.81192017 9.58824158 C-53.80155216 3.66560432 -53.80155216 3.66560432 -52.6875 1.4375 C-48.72918191 1.40857143 -44.77089083 1.39072573 -40.8125 1.375 C-39.12060547 1.36243164 -39.12060547 1.36243164 -37.39453125 1.34960938 C-36.31816406 1.34638672 -35.24179687 1.34316406 -34.1328125 1.33984375 C-33.13781738 1.33460693 -32.14282227 1.32937012 -31.11767578 1.32397461 C-28.6875 1.4375 -28.6875 1.4375 -26.6875 2.4375 C-26.2734375 4.50390625 -26.2734375 4.50390625 -26.0625 7 C-25.98773437 7.82628906 -25.91296875 8.65257812 -25.8359375 9.50390625 C-25.78695312 10.14199219 -25.73796875 10.78007812 -25.6875 11.4375 C-24.90375 10.6125 -24.12 9.7875 -23.3125 8.9375 C-20.6875 6.4375 -20.6875 6.4375 -18.6875 6.4375 C-18.6875 5.7775 -18.6875 5.1175 -18.6875 4.4375 C-12.44887683 0.67078413 -7.14326982 0.02733481 0 0 Z " fill="#FB5F36" transform="translate(664.6875,437.5625)"/>
<path d="M0 0 C0.79148437 0.43570312 1.58296875 0.87140625 2.3984375 1.3203125 C12.53261241 7.4816215 18.88745465 16.38820311 21.71484375 27.9140625 C23.02481952 35.16195765 23.85154889 42.6345409 24 50 C23 51 23 51 20.45005798 51.12025452 C18.74795921 51.1169236 18.74795921 51.1169236 17.01147461 51.11352539 C15.73022202 51.11344986 14.44896942 51.11337433 13.12889099 51.11329651 C11.72004152 51.10818909 10.31119244 51.10297309 8.90234375 51.09765625 C7.46887766 51.09579202 6.03541093 51.09436814 4.60194397 51.09336853 C0.82240043 51.08954372 -2.9571049 51.07971377 -6.7366333 51.06866455 C-10.59069298 51.05844963 -14.44475882 51.05387074 -18.29882812 51.04882812 C-25.86590287 51.03809146 -33.43294609 51.02101549 -41 51 C-40.70645929 52.44132634 -40.40555358 53.88115399 -40.1015625 55.3203125 C-39.93479004 56.12227051 -39.76801758 56.92422852 -39.59619141 57.75048828 C-38.86508253 60.50906207 -37.54231338 62.61642478 -36 65 C-36 65.99 -36 66.98 -36 68 C-35.236875 68.28875 -34.47375 68.5775 -33.6875 68.875 C-31 70 -31 70 -28 72 C-21.25552789 72.949222 -15.24556863 72.70773399 -9.625 68.64453125 C-6.8076081 65.79327646 -5.50274984 62.69426003 -4 59 C1.79947349 59.62607952 7.33809831 60.67400938 13 62.0625 C13.77472656 62.24876953 14.54945312 62.43503906 15.34765625 62.62695312 C17.23270759 63.08076178 19.1164927 63.53982492 21 64 C21.48554338 71.74965321 18.69306651 75.17343861 14 81 C13.278125 81.9075 12.55625 82.815 11.8125 83.75 C1.81766648 91.74586682 -9.35494598 94.39704599 -21.875 94.3125 C-22.75269043 94.30686035 -23.63038086 94.3012207 -24.53466797 94.29541016 C-37.75906478 94.04811075 -47.8621199 89.94425464 -57.6875 81 C-67.46445706 70.80626324 -70.19819943 59.11546776 -70.3125 45.4375 C-70.34150391 44.30763672 -70.37050781 43.17777344 -70.40039062 42.01367188 C-70.48378341 30.87111303 -67.41466614 22.05111468 -61 13 C-60.401875 12.13375 -59.80375 11.2675 -59.1875 10.375 C-45.36026546 -4.63742607 -18.17340319 -10.33893256 0 0 Z M-36 22 C-38.39060483 25.88573226 -39.89223179 29.56892716 -41 34 C-29.12 34 -17.24 34 -5 34 C-8.04568008 23.30233973 -8.04568008 23.30233973 -16.03515625 16.72265625 C-23.51292359 13.97238397 -30.52300701 16.66344273 -36 22 Z " fill="#F71C3D" transform="translate(1087,442)"/>
<path d="M0 0 C1.53817383 -0.03673828 1.53817383 -0.03673828 3.10742188 -0.07421875 C13.36892225 -0.11311262 21.67474207 3.00039507 30.3125 8.375 C30.3125 9.035 30.3125 9.695 30.3125 10.375 C30.89 10.6225 31.4675 10.87 32.0625 11.125 C34.64189979 12.55799988 36.37371592 14.15924676 38.3125 16.375 C38.3125 17.035 38.3125 17.695 38.3125 18.375 C38.9725 18.375 39.6325 18.375 40.3125 18.375 C41.33285504 20.36469233 42.32660895 22.36800751 43.3125 24.375 C43.66054688 25.06335938 44.00859375 25.75171875 44.3671875 26.4609375 C46.95205527 31.83821717 48.11013726 36.42729507 48.3125 42.375 C48.37244141 44.11523438 48.37244141 44.11523438 48.43359375 45.890625 C48.68579518 60.54797854 46.68899721 74.56090922 36.1875 85.71875 C22.92400072 97.43484103 9.65446001 99.3510301 -7.42333984 98.55224609 C-14.38885078 98.0069624 -20.64863714 95.80246271 -26.6875 92.375 C-26.6875 91.715 -26.6875 91.055 -26.6875 90.375 C-27.27789063 90.271875 -27.86828125 90.16875 -28.4765625 90.0625 C-34.48220845 88.19501999 -39.11994815 81.11681877 -42.33203125 75.984375 C-49.27761965 62.61361692 -49.74422462 46.27757199 -46.1875 31.8125 C-42.18973988 19.8473729 -33.7083334 10.31895588 -22.5625 4.5625 C-20.95700476 3.7913359 -19.33052151 3.06259678 -17.6875 2.375 C-16.41326172 1.82392578 -16.41326172 1.82392578 -15.11328125 1.26171875 C-10.07656456 -0.04196961 -5.18220056 0.00639383 0 0 Z M-10.6875 25.375 C-11.574375 26.055625 -12.46125 26.73625 -13.375 27.4375 C-19.72992839 35.50997661 -19.56812038 46.55658886 -18.6875 56.375 C-17.2826709 64.5212417 -15.16042113 70.12016956 -8.4921875 75.203125 C-3.81704369 78.23893267 0.87446786 77.99261584 6.3125 77.375 C11.3484305 75.68368749 14.0478808 71.77379871 16.75 67.375 C19.46769372 61.50973607 19.88395347 56.11308392 19.9375 49.6875 C19.94837646 48.80900391 19.95925293 47.93050781 19.97045898 47.02539062 C19.78532227 38.49146967 16.693677 31.02233629 11.3125 24.375 C4.26680259 19.34235899 -4.21347739 19.80432938 -10.6875 25.375 Z " fill="#F94739" transform="translate(809.6875,437.625)"/>
<path d="M0 0 C4.31248609 -0.02886537 8.62494762 -0.04675255 12.9375 -0.0625 C14.16919922 -0.07087891 15.40089844 -0.07925781 16.66992188 -0.08789062 C17.83974609 -0.09111328 19.00957031 -0.09433594 20.21484375 -0.09765625 C21.84087524 -0.10551147 21.84087524 -0.10551147 23.49975586 -0.11352539 C26 0 26 0 27 1 C27.11280563 2.76761316 27.15680457 4.53966147 27.17358398 6.31079102 C27.18707382 7.44609756 27.20056366 8.58140411 27.21446228 9.75111389 C27.22490067 10.98953537 27.23533905 12.22795685 27.24609375 13.50390625 C27.27904968 16.10742502 27.31226102 18.71094056 27.34570312 21.31445312 C27.39407093 25.43330734 27.43778537 29.55218957 27.47680664 33.67114258 C27.51494625 37.63637204 27.56818866 41.60134606 27.62109375 45.56640625 C27.6295079 46.79065811 27.63792206 48.01490997 27.64659119 49.27626038 C27.77505811 58.21052293 28.15158992 65.77549343 34 73 C37.42804486 75.60058575 40.8159326 75.41840674 45 75 C50.51628889 73.12405617 53.20521011 71.17186986 56 66 C58.85015144 57.84496806 59.46180232 49.80678493 59.51171875 41.234375 C59.52966995 40.07496399 59.54762115 38.91555298 59.56611633 37.7210083 C59.61974819 34.06404115 59.65396319 30.4072009 59.6875 26.75 C59.72071467 24.2512846 59.75520808 21.75258584 59.79101562 19.25390625 C59.875447 13.16938483 59.94399357 7.08484598 60 1 C65.28859561 -0.10667378 70.29664058 -0.18384518 75.6875 -0.1875 C77.13092773 -0.20586914 77.13092773 -0.20586914 78.60351562 -0.22460938 C79.52197266 -0.22654297 80.44042969 -0.22847656 81.38671875 -0.23046875 C82.22420654 -0.23457764 83.06169434 -0.23868652 83.92456055 -0.24291992 C86 0 86 0 88 2 C88.18831473 4.95274914 88.25167271 7.81102853 88.22705078 10.76416016 C88.22734283 11.67153427 88.22763489 12.57890839 88.22793579 13.51377869 C88.22653898 16.52230286 88.21096128 19.53058142 88.1953125 22.5390625 C88.19158362 24.62128565 88.18873606 26.70351055 88.18673706 28.78573608 C88.17909077 34.27340517 88.15943375 39.76096884 88.1373291 45.24859619 C88.11689209 50.84540379 88.10773994 56.44222837 88.09765625 62.0390625 C88.07618878 73.0260955 88.04099854 84.0130225 88 95 C79.09 95 70.18 95 61 95 C60.67 91.37 60.34 87.74 60 84 C59.319375 84.886875 58.63875 85.77375 57.9375 86.6875 C52.44761405 93.21059482 46.44549042 96.37520868 37.8894043 97.20458984 C27.54840827 97.67643147 19.27362958 97.55653863 10.8125 90.9375 C4.11182537 84.71074342 0.47086771 75.62967928 -0.28520203 66.59013367 C-0.30971184 64.81047966 -0.30971184 64.81047966 -0.3347168 62.99487305 C-0.34636871 62.33382065 -0.35802063 61.67276825 -0.37002563 60.99168396 C-0.40567994 58.83172027 -0.42777552 56.67186644 -0.44921875 54.51171875 C-0.47049511 53.00192812 -0.49246344 51.49214709 -0.51509094 49.9823761 C-0.56031579 46.83131248 -0.59916057 43.68025818 -0.63305664 40.52905273 C-0.67678612 36.48581292 -0.73352562 32.44288566 -0.7946043 28.39987469 C-0.84070796 25.28848577 -0.88152898 22.17704614 -0.92057228 19.06556129 C-0.93963628 17.57396569 -0.95999582 16.08238607 -0.98166466 14.59082603 C-1.01075072 12.51328965 -1.03309796 10.43579202 -1.0534668 8.3581543 C-1.06741989 7.17569626 -1.08137299 5.99323822 -1.0957489 4.77494812 C-1 2 -1 2 0 0 Z " fill="#FC8231" transform="translate(504,439)"/>
<path d="M0 0 C10.22221756 9.21517443 19.40071385 19.27434965 25 32 C25.32484375 32.70640625 25.6496875 33.4128125 25.984375 34.140625 C26.67139206 35.65206252 27.34289828 37.17063117 28 38.6953125 C28.63637432 40.16195644 29.30036071 41.61714739 30 43.0546875 C38.58337713 61.89788261 39.10805459 85.00921206 35 105 C34.82855469 106.00546875 34.65710938 107.0109375 34.48046875 108.046875 C32.25023105 119.61533378 27.25532161 131.02127267 21 141 C20.67 141.66 20.34 142.32 20 143 C19.34 143 18.68 143 18 143 C17.7525 143.71671875 17.505 144.4334375 17.25 145.171875 C13.15230343 154.44291349 4.58510902 161.57084081 -3 168 C-3.5671875 168.50402344 -4.134375 169.00804687 -4.71875 169.52734375 C-8.19860732 172.5722189 -11.94151824 174.83625742 -16 177 C-17.06532959 177.57379395 -18.13065918 178.14758789 -19.22827148 178.73876953 C-20.38915283 179.36380371 -21.55003418 179.98883789 -22.74609375 180.6328125 C-23.34836792 180.95709229 -23.95064209 181.28137207 -24.57116699 181.61547852 C-26.0474355 182.41033603 -27.52371649 183.20517035 -29 184 C-27.78184349 184.0154612 -27.78184349 184.0154612 -26.53907776 184.03123474 C-18.90163512 184.12903979 -11.26427678 184.23152948 -3.62696934 184.33933926 C0.29984614 184.39460415 4.22666901 184.4480297 8.15356445 184.49731445 C11.94020842 184.54490561 15.72675916 184.59724624 19.51329231 184.65294075 C20.96101638 184.67338818 22.40876603 184.69209724 23.85653496 184.70907402 C25.87764159 184.73306508 27.8986661 184.76370075 29.91967773 184.79467773 C31.64842384 184.81799416 31.64842384 184.81799416 33.41209412 184.84178162 C36 185 36 185 37 186 C37.04063832 187.66617115 37.042721 189.33388095 37 191 C34.60150037 192.19924982 33.12137832 192.1257768 30.44316101 192.12698364 C29.48315689 192.12980347 28.52315277 192.13262329 27.53405762 192.13552856 C25.94845032 192.13249222 25.94845032 192.13249222 24.33081055 192.12939453 C23.21998611 192.13114685 22.10916168 192.13289917 20.9646759 192.13470459 C17.27200786 192.13912466 13.57938733 192.13618236 9.88671875 192.1328125 C7.31997163 192.13348602 4.75322457 192.13445645 2.18647766 192.13571167 C-3.20812644 192.13718928 -8.60271266 192.1351293 -13.99731445 192.13037109 C-20.20461966 192.12495872 -26.41189187 192.12666883 -32.61919624 192.1321975 C-38.60992208 192.13731711 -44.60063201 192.13672974 -50.59136009 192.13381577 C-53.12887769 192.13315183 -55.66639613 192.13395614 -58.20391273 192.13629532 C-61.77178735 192.13885983 -65.33960061 192.13492683 -68.9074707 192.12939453 C-70.45967819 192.13243088 -70.45967819 192.13243088 -72.04324341 192.13552856 C-82.82880527 192.10483966 -93.40073634 191.73119868 -103.75 188.5 C-105.01408691 188.11231445 -105.01408691 188.11231445 -106.30371094 187.71679688 C-118.14288493 183.8873905 -129.45193271 178.0195825 -139 170 C-139.85722656 169.33484375 -140.71445313 168.6696875 -141.59765625 167.984375 C-148.11084595 162.8598296 -153.69939945 157.36489436 -159 151 C-159.53109375 150.37867188 -160.0621875 149.75734375 -160.609375 149.1171875 C-165.75929319 142.72132136 -169.34410608 135.30982124 -173 128 C-173.48855469 127.05511719 -173.97710937 126.11023438 -174.48046875 125.13671875 C-185.8919653 100.87412147 -184.89225495 69.32393036 -176.10839844 44.47802734 C-171.46853277 32.46853277 -171.46853277 32.46853277 -168 29 C-167.72671875 28.26523437 -167.4534375 27.53046875 -167.171875 26.7734375 C-165.70501683 23.30187317 -163.57349451 20.55281723 -161.25 17.625 C-160.79681396 17.0484668 -160.34362793 16.47193359 -159.87670898 15.87792969 C-158.98269727 14.74518439 -158.08558953 13.61487415 -157.18505859 12.48730469 C-156.24330385 11.30535786 -155.31628654 10.11167156 -154.39453125 8.9140625 C-143.12872131 -5.15994054 -124.28176221 -17.19781121 -107 -22 C-106.22011719 -22.25394531 -105.44023437 -22.50789063 -104.63671875 -22.76953125 C-98.81689971 -24.56228279 -93.03230664 -25.49868555 -87 -26.1875 C-86.2769165 -26.27136963 -85.55383301 -26.35523926 -84.80883789 -26.44165039 C-53.24070902 -29.71316022 -23.99073225 -20.71542676 0 0 Z M-103 -15 C-103.94746094 -14.69964844 -104.89492187 -14.39929688 -105.87109375 -14.08984375 C-117.70852648 -10.21119558 -128.30067761 -3.72826126 -138 4 C-138.88171875 4.69222656 -139.7634375 5.38445312 -140.671875 6.09765625 C-151.65749148 15.35287938 -161.82204189 28.53344478 -167 42 C-167.36448242 42.93416748 -167.36448242 42.93416748 -167.73632812 43.88720703 C-173.21075647 58.18337984 -175.93077988 72.63179001 -175 88 C-174.89751953 89.85431641 -174.89751953 89.85431641 -174.79296875 91.74609375 C-173.57113119 107.82280331 -167.78570395 122.96862145 -160 137 C-159.34 137 -158.68 137 -158 137 C-157.34 138.98 -156.68 140.96 -156 143 C-155.34 143 -154.68 143 -154 143 C-153.63455078 143.83917969 -153.63455078 143.83917969 -153.26171875 144.6953125 C-149.29529173 151.94048879 -142.40635684 157.89442628 -136 163 C-134.824375 163.99 -134.824375 163.99 -133.625 165 C-126.7471151 170.24029326 -120.13766987 174.05176223 -112 177 C-110.1746875 177.7425 -110.1746875 177.7425 -108.3125 178.5 C-87.64007499 186.17832929 -62.83418656 188.67815084 -42 180 C-40.90558594 179.70609375 -39.81117188 179.4121875 -38.68359375 179.109375 C-34.55430959 177.86577299 -30.89731494 176.19700488 -27.0625 174.25 C-25.99938599 173.71113159 -25.99938599 173.71113159 -24.91479492 173.16137695 C-19.83890416 170.5371268 -15.3619334 167.70305627 -11 164 C-9.50919922 162.83210938 -9.50919922 162.83210938 -7.98828125 161.640625 C3.11448032 152.81200176 11.16609168 142.45289961 18 130 C18.35449219 129.38382813 18.70898438 128.76765625 19.07421875 128.1328125 C30.97157299 106.21910864 32.29851323 77.84079146 26 54 C18.98814226 31.28028541 3.13120028 7.83094148 -18 -4 C-18.56396484 -4.32709961 -19.12792969 -4.65419922 -19.70898438 -4.99121094 C-36.70180376 -14.77998305 -52.75990286 -19.23993393 -72.4375 -19.3125 C-73.11229401 -19.31511841 -73.78708801 -19.31773682 -74.48233032 -19.32043457 C-84.61065515 -19.32465602 -93.44904535 -18.63666126 -103 -15 Z " fill="#EDCE2B" transform="translate(350,397)"/>
<path d="M0 0 C1.66385742 -0.00386719 1.66385742 -0.00386719 3.36132812 -0.0078125 C4.51955078 -0.00007813 5.67777344 0.00765625 6.87109375 0.015625 C8.03318359 0.00789063 9.19527344 0.00015625 10.39257812 -0.0078125 C11.50052734 -0.00523437 12.60847656 -0.00265625 13.75 0 C14.76779541 0.00225586 15.78559082 0.00451172 16.83422852 0.00683594 C19.30859375 0.265625 19.30859375 0.265625 21.30859375 2.265625 C21.55468941 4.07345772 21.55468941 4.07345772 21.54910278 6.30252075 C21.55185211 7.14668549 21.55460144 7.99085022 21.55743408 8.8605957 C21.55024353 9.788479 21.54305298 10.7163623 21.53564453 11.67236328 C21.53593658 12.64801239 21.53622864 13.6236615 21.53652954 14.62887573 C21.53513243 17.86465241 21.51955326 21.10020088 21.50390625 24.3359375 C21.50017748 26.57510248 21.49732987 28.81426909 21.49533081 31.05343628 C21.48768367 36.9553882 21.4680259 42.85724214 21.44592285 48.75915527 C21.42189665 55.83594233 21.41268859 62.9127621 21.40101624 69.98957825 C21.38160215 80.7483287 21.343287 91.50686406 21.30859375 102.265625 C40.77859375 102.265625 60.24859375 102.265625 80.30859375 102.265625 C80.30859375 110.185625 80.30859375 118.105625 80.30859375 126.265625 C68.85209008 126.28817512 57.39560104 126.30653956 45.93908024 126.31743717 C40.61994162 126.32266622 35.30081891 126.32976427 29.98168945 126.34106445 C24.8529539 126.35189255 19.72423369 126.35790167 14.59548759 126.36050224 C12.63417761 126.36235663 10.67286851 126.36597751 8.71156502 126.37135506 C5.97443928 126.37856446 3.23737778 126.37961599 0.50024414 126.37915039 C-0.72866043 126.3845433 -0.72866043 126.3845433 -1.98239136 126.39004517 C-7.57735409 126.37967716 -7.57735409 126.37967716 -8.69140625 125.265625 C-8.79389119 123.67612007 -8.8266042 122.08206985 -8.83184814 120.48927307 C-8.83755829 119.45584778 -8.84326843 118.42242249 -8.84915161 117.35768127 C-8.85026947 116.2142778 -8.85138733 115.07087433 -8.85253906 113.89282227 C-8.85750397 112.69619965 -8.86246887 111.49957703 -8.86758423 110.26669312 C-8.87971729 106.97538438 -8.88715723 103.68413938 -8.89159489 100.39281583 C-8.89452186 98.33862039 -8.89862592 96.28443058 -8.90309906 94.23023796 C-8.91677904 87.80912347 -8.92644351 81.38802179 -8.93030095 74.96689373 C-8.93478454 67.54336714 -8.95234407 60.12002443 -8.98130155 52.69655377 C-9.00288378 46.96576035 -9.01300336 41.23501879 -9.01434207 35.50418514 C-9.01539251 32.07792444 -9.02135051 28.65183645 -9.03916168 25.22561836 C-9.05862963 21.40629197 -9.05436724 17.58719725 -9.04785156 13.76782227 C-9.05706635 12.62644302 -9.06628113 11.48506378 -9.07577515 10.30909729 C-9.07020599 9.27285217 -9.06463684 8.23660706 -9.05889893 7.16896057 C-9.06036549 6.26505868 -9.06183205 5.36115679 -9.06334305 4.42986393 C-8.87923433 3.35856566 -8.87923433 3.35856566 -8.69140625 2.265625 C-5.27842977 -0.00969266 -4.0100972 0.00887821 0 0 Z " fill="#FEA02E" transform="translate(414.69140625,407.734375)"/>
<path d="M0 0 C1.81455688 0.07069702 1.81455688 0.07069702 3.66577148 0.14282227 C5.62353516 0.21533203 5.62353516 0.21533203 7.62084961 0.28930664 C9.00952598 0.34583683 10.39819781 0.40247892 11.78686523 0.45922852 C13.17942544 0.51243399 14.5720035 0.56517448 15.96459961 0.61743164 C19.38472504 0.74760943 22.80459448 0.88259032 26.22436523 1.02172852 C28.3916945 6.32496353 30.52174184 11.58943723 32.16186523 17.08422852 C32.49573242 18.19282227 32.82959961 19.30141602 33.17358398 20.44360352 C33.89183208 22.88938515 34.60242324 25.33742498 35.30639648 27.78735352 C38.91600861 40.32115561 43.03932668 52.66939146 47.22436523 65.02172852 C50.3358238 55.92567732 53.22375038 46.79706483 55.90014648 37.56469727 C57.34563921 32.58065591 58.84850667 27.61431976 60.34936523 22.64672852 C62.23644809 16.3985198 64.05876065 10.14587244 65.68139648 3.82250977 C66.22436523 2.02172852 66.22436523 2.02172852 67.22436523 1.02172852 C69.51587941 0.93381876 71.81009048 0.91478813 74.10327148 0.92407227 C75.13326515 0.92619469 75.13326515 0.92619469 76.18406677 0.92835999 C78.38504324 0.93397372 80.58591932 0.94652845 82.78686523 0.95922852 C84.27579606 0.96424175 85.76472848 0.96880496 87.25366211 0.97290039 C90.91059598 0.98394759 94.56747082 1.00122139 98.22436523 1.02172852 C97.62996816 4.32429735 96.83093621 7.34214761 95.62280273 10.47094727 C95.14025024 11.72887085 95.14025024 11.72887085 94.64794922 13.01220703 C94.3019165 13.90222412 93.95588379 14.79224121 93.59936523 15.70922852 C93.06194702 17.10709595 93.06194702 17.10709595 92.51367188 18.53320312 C90.82080661 22.92927034 89.11070389 27.31833149 87.38452148 31.70141602 C83.97191711 40.37671647 80.75784892 49.09300851 77.71069336 57.90380859 C75.74635992 63.5723295 73.67544946 69.18557342 71.48608398 74.77172852 C70.50987777 77.28629065 69.5562258 79.80515569 68.61889648 82.33422852 C68.3456958 83.07060547 68.07249512 83.80698242 67.79101562 84.56567383 C67.25554592 86.01216239 66.72210722 87.45940477 66.19091797 88.9074707 C64.33448384 93.91160991 64.33448384 93.91160991 63.22436523 95.02172852 C60.77606097 95.11016645 58.35615925 95.13701603 55.90795898 95.11938477 C55.17690445 95.11796982 54.44584991 95.11655487 53.69264221 95.11509705 C51.34900891 95.1094826 49.00546984 95.09692773 46.66186523 95.08422852 C45.07658015 95.07921537 43.49129358 95.07465214 41.90600586 95.07055664 C38.01208913 95.05950848 34.11824318 95.04223423 30.22436523 95.02172852 C29.89243164 94.15797607 29.56049805 93.29422363 29.21850586 92.40429688 C28.77700195 91.25582275 28.33549805 90.10734863 27.88061523 88.92407227 C27.44555664 87.79219482 27.01049805 86.66031738 26.56225586 85.49414062 C25.28865855 82.18859782 24.00758216 78.88604644 22.72436523 75.58422852 C21.03162525 71.18941289 19.41516603 66.77578109 17.84936523 62.33422852 C13.86462063 51.09200235 9.4399609 40.0176314 4.97436523 28.95922852 C3.11087082 24.32767873 1.38367028 19.70327783 -0.11938477 14.94360352 C-0.7879777 12.98558136 -1.59650044 11.14943622 -2.46313477 9.27172852 C-3.71141797 6.18074152 -4.16131886 4.30004328 -3.77563477 1.02172852 C-2.77563477 0.02172852 -2.77563477 0.02172852 0 0 Z " fill="#F8303B" transform="translate(866.775634765625,438.978271484375)"/>
<path d="M0 0 C0.89976562 0.20496094 1.79953125 0.40992188 2.7265625 0.62109375 C15.65712732 4.01168159 32.26707811 12.50815038 41 23 C41 23.66 41 24.32 41 25 C41.57878906 25.23460937 42.15757812 25.46921875 42.75390625 25.7109375 C54.47611089 32.43846364 62.39208456 51.70692778 65.79272461 64.01733398 C70.56300585 82.2134138 71.05527024 101.04156155 65 119 C64.66484375 120.03382813 64.3296875 121.06765625 63.984375 122.1328125 C63.06973491 124.79688324 62.07766478 127.39814798 61 130 C60.72800781 130.65742187 60.45601562 131.31484375 60.17578125 131.9921875 C58.05135045 136.62556145 55.23224204 140.794874 52.375 145 C51.97837158 145.58894043 51.58174316 146.17788086 51.1730957 146.78466797 C50.16883988 148.22845899 49.08991129 149.61972624 48 151 C47.34 151 46.68 151 46 151 C45.7421875 151.58136719 45.484375 152.16273438 45.21875 152.76171875 C41.08222644 160.35860336 33.04847138 165.37693154 26 170 C25.37738281 170.44085937 24.75476563 170.88171875 24.11328125 171.3359375 C4.5337657 184.67209343 -21.60304351 187.1236991 -44.42529297 182.91845703 C-56.56561619 180.26402454 -68.9345133 175.33941739 -79 168 C-79 167.34 -79 166.68 -79 166 C-79.56332031 165.74089844 -80.12664062 165.48179687 -80.70703125 165.21484375 C-91.70349534 159.38877845 -100.46073286 148.99364131 -106 138 C-106.79857422 136.59621094 -106.79857422 136.59621094 -107.61328125 135.1640625 C-120.30540381 111.84534482 -121.20637223 86.75879984 -114.0925293 61.54467773 C-110.76270312 50.42341571 -105.18938082 40.13245672 -98 31 C-97.34 31 -96.68 31 -96 31 C-95.7525 30.38125 -95.505 29.7625 -95.25 29.125 C-93.76259631 26.59641373 -92.56321991 26.28160996 -90 25 C-89.7215625 24.39929688 -89.443125 23.79859375 -89.15625 23.1796875 C-83.39034362 12.31017479 -65.07728281 4.62831694 -54 1 C-35.77044765 -4.17293646 -18.35562965 -4.35591653 0 0 Z M-71 18 C-71.99 18.33 -72.98 18.66 -74 19 C-74 19.66 -74 20.32 -74 21 C-74.58394531 21.268125 -75.16789062 21.53625 -75.76953125 21.8125 C-91.03499024 29.93981967 -102.07800493 48.04117087 -107.38183594 63.9140625 C-114.032344 86.35558732 -112.09844538 111.29354795 -101 132 C-98.86375063 135.50847544 -96.51699748 138.75694556 -94 142 C-93.41734375 142.80824219 -92.8346875 143.61648438 -92.234375 144.44921875 C-88.41929283 149.55469637 -84.20549851 153.81615978 -79.375 157.9375 C-78.56748291 158.62863892 -78.56748291 158.62863892 -77.74365234 159.33374023 C-74.35332032 162.1361864 -70.96803484 164.13300238 -67 166 C-66.22398437 166.49242187 -65.44796875 166.98484375 -64.6484375 167.4921875 C-61.11653219 169.50297725 -57.45516132 170.79247884 -53.625 172.125 C-52.53058594 172.52138672 -52.53058594 172.52138672 -51.4140625 172.92578125 C-42.74293923 175.97615854 -34.43465246 176.18228436 -25.3125 176.1875 C-24.20455078 176.19974609 -23.09660156 176.21199219 -21.95507812 176.22460938 C-7.09740133 176.25066024 6.98506338 173.59109164 19.4140625 165.015625 C21 164 21 164 24 163 C25.18080897 161.85292843 26.35566543 160.69877874 27.4921875 159.5078125 C29.1861545 157.8138455 30.98110993 156.2941132 32.8125 154.75 C51.04312044 138.84960924 60.07015534 117.59941527 62.203125 93.7265625 C62.74632803 69.37295981 52.71737056 47.04628376 36.3828125 29.3828125 C19.78002467 12.78002467 -1.6866726 4.22413945 -25.046875 3.8671875 C-40.86507046 4.39862885 -58.33083199 7.93654739 -71 18 Z " fill="#EED22C" transform="translate(302,389)"/>
<path d="M0 0 C9.24 0 18.48 0 28 0 C28 31.02 28 62.04 28 94 C18.76 94 9.52 94 0 94 C0 62.98 0 31.96 0 0 Z " fill="#F7293B" transform="translate(975,440)"/>
<path d="M0 0 C1.36433563 0.68854322 2.71924577 1.39618483 4.0625 2.125 C5.08537109 2.59679687 5.08537109 2.59679687 6.12890625 3.078125 C11.69785319 6.09323162 14.37430224 11.27530345 16.4375 17.0625 C19.17913364 26.34719207 18.35130491 33.36868997 14.0625 42.125 C9.22391765 49.88250974 2.50065038 53.01616462 -5.96484375 55.7890625 C-12.97325782 57.30039069 -21.13427294 54.42749422 -27.10546875 50.8125 C-28.75 49.5 -28.75 49.5 -30.9375 47.125 C-30.9375 46.465 -30.9375 45.805 -30.9375 45.125 C-31.8346875 44.8465625 -31.8346875 44.8465625 -32.75 44.5625 C-36.53839547 42.07298298 -37.40749282 37.9559339 -38.625 33.75 C-39.63073812 25.30179979 -39.17750881 17.273014 -34.53125 9.890625 C-26.45425952 -0.24371211 -12.22306558 -5.45274402 0 0 Z M-27.875 14.625 C-31.71829489 19.73772031 -32.36328576 23.73821357 -31.9375 30.125 C-30.6408132 35.14012687 -28.73739371 39.5251007 -24.9375 43.125 C-18.89764886 46.65819355 -12.44068531 49.14070268 -5.4609375 47.56640625 C0.93484963 45.39261153 5.5242598 41.93550456 9.0625 36.125 C10.83391384 29.59548621 11.01030672 22.28859586 8.0625 16.125 C4.59305263 10.97070917 1.18155674 7.8303109 -4.9375 6.125 C-14.89665029 4.93228739 -21.50541512 6.78252937 -27.875 14.625 Z " fill="#E7C02D" transform="translate(339.9375,452.875)"/>
<path d="M0 0 C6.97476091 4.02390052 10.67836175 8.0042359 12.875 15.6875 C14.80641815 24.6051335 13.87382064 32.04296379 10.1328125 40.3203125 C9 42 9 42 6 43 C5.566875 43.928125 5.566875 43.928125 5.125 44.875 C2.84366159 49.18419477 -2.27570411 50.8588553 -6.70703125 52.421875 C-15.15038747 54.55069394 -23.35434835 52.98453588 -31 49 C-33.375 46.5625 -33.375 46.5625 -35 44 C-35.845625 43.2575 -36.69125 42.515 -37.5625 41.75 C-42.61155472 36.05363057 -43.59355068 29.21801187 -43.34375 21.765625 C-42.32151562 13.54128477 -38.45336631 6.23465505 -32 1 C-21.20421823 -5.33866616 -10.92440058 -6.19975767 0 0 Z M-29 8 C-29.35443414 9.32788001 -29.6897678 10.66110312 -30 12 C-30.99 12.33 -31.98 12.66 -33 13 C-36.02569659 18.59602079 -35.49820429 24.82693743 -35 31 C-33.12624239 36.522654 -29.89672887 40.4217822 -24.734375 43.234375 C-17.42350141 46.50856992 -13.08755488 46.21909531 -5.4375 43.9375 C-0.21928439 40.99632393 4.08083913 36.7574826 6 31 C6.69551621 22.48597173 6.69551621 22.48597173 4.25 14.5 C3.5075 13.675 2.765 12.85 2 12 C1.401875 11.113125 0.80375 10.22625 0.1875 9.3125 C-4.06716164 4.81471484 -8.38662189 3.81376062 -14.375 3.5625 C-19.66582737 3.71596322 -24.69925863 4.75944139 -29 8 Z " fill="#F6E331" transform="translate(240,455)"/>
<path d="M0 0 C2.6875 2.4375 2.6875 2.4375 5 5 C5.70125 5.7425 6.4025 6.485 7.125 7.25 C11.35965775 13.46083137 13.08375875 20.54763646 12 28 C9.80313331 36.78746677 6.12177136 42.61098799 -0.8125 48.3125 C-9.54170593 52.93384431 -18.86286438 52.91691475 -28.21484375 50.1640625 C-34.83252096 47.39818899 -39.54253025 42.68545325 -42.5 36.1875 C-43.02945897 34.8025726 -43.53363341 33.40742776 -44 32 C-44.495 30.515 -44.495 30.515 -45 29 C-45.74668985 21.17411598 -44.96955848 13.34935333 -40.453125 6.734375 C-30.48815448 -5.17067827 -13.28521057 -9.76056287 0 0 Z M-33 10 C-37.56046781 15.77770419 -37.71575268 20.18300928 -37.51171875 27.359375 C-36.76510346 32.6711723 -34.90035134 35.44945595 -31 39 C-30.52820313 39.52335938 -30.05640625 40.04671875 -29.5703125 40.5859375 C-25.70486612 44.21104524 -21.74654723 44.45606932 -16.5625 44.6875 C-10.64776799 44.48293911 -6.89780678 43.75235819 -2.515625 39.72265625 C1.89417431 34.71048745 4.14095359 30.42077612 4.1875 23.625 C4.20167969 22.68914063 4.21585937 21.75328125 4.23046875 20.7890625 C3.79289229 15.49364566 1.61990934 11.81043088 -2 8 C-12.50932472 -0.66046204 -23.28555894 0.71731188 -33 10 Z " fill="#EFD32F" transform="translate(294,508)"/>
<path d="M0 0 C1.58321242 0.99724184 3.14236107 2.03240738 4.69921875 3.0703125 C4.69921875 3.7303125 4.69921875 4.3903125 4.69921875 5.0703125 C5.35921875 5.0703125 6.01921875 5.0703125 6.69921875 5.0703125 C11.3212227 10.73599476 13.28719735 17.29344968 14.07421875 24.5078125 C13.09351767 33.82447278 10.89405934 40.78729329 3.69921875 47.0703125 C-4.62429434 53.19458543 -12.16106406 53.82257992 -22.30078125 53.0703125 C-28.07510386 51.50363582 -33.28993285 47.45717794 -37.30078125 43.0703125 C-37.30078125 42.4103125 -37.30078125 41.7503125 -37.30078125 41.0703125 C-37.96078125 41.0703125 -38.62078125 41.0703125 -39.30078125 41.0703125 C-43.63242306 31.46536762 -44.81105331 22.67848474 -41.39453125 12.4921875 C-38.32967212 5.7057137 -33.0512624 0.95938657 -26.30859375 -2.08203125 C-17.70894832 -4.50556769 -7.95391101 -4.21916694 0 0 Z M-32.30078125 12.0703125 C-35.50083174 16.27545968 -35.65371867 19.47638546 -35.55078125 24.6953125 C-35.5353125 26.00757813 -35.51984375 27.31984375 -35.50390625 28.671875 C-35.44876879 32.05812076 -35.44876879 32.05812076 -34.30078125 35.0703125 C-33.64078125 35.0703125 -32.98078125 35.0703125 -32.30078125 35.0703125 C-32.03265625 35.6684375 -31.76453125 36.2665625 -31.48828125 36.8828125 C-29.04486964 41.38383388 -25.21548467 44.00158791 -20.42578125 45.7578125 C-12.66012322 46.89982103 -6.93012348 45.16249906 -0.30078125 41.0703125 C4.51082403 36.34312135 5.83416284 31.36184601 6.01171875 24.8203125 C5.93715408 18.60659018 4.47541516 14.20653438 0.34375 9.5390625 C-4.22303951 5.32733169 -9.30287783 4.01655413 -15.36328125 3.8203125 C-22.69757619 4.28598202 -27.3416835 6.75098974 -32.30078125 12.0703125 Z " fill="#EFD22D" transform="translate(292.30078125,402.9296875)"/>
<path d="M0 0 C4.84149186 2.36557223 7.22228671 5.41346489 9.5625 10.1875 C10.2603955 16.26916082 10.82584283 22.75280875 7.73046875 28.2578125 C4.12806804 32.61717336 0.47843994 35.03846449 -5.1875 35.8125 C-11.03397926 36.33175967 -16.09324973 35.12674181 -20.86328125 31.63671875 C-24.04977917 28.69358105 -25.79769343 26.45074461 -26 22 C-26.03738281 21.22140625 -26.07476563 20.4428125 -26.11328125 19.640625 C-26.30954679 12.65770355 -25.6519544 8.46950685 -20.875 3.1875 C-14.84588584 -1.8367618 -7.31738724 -1.31472563 0 0 Z " fill="#F82A3C" transform="translate(997,396)"/>
<path d="M0 0 C0.99708984 0.11794922 1.99417969 0.23589844 3.02148438 0.35742188 C8.34816487 1.04850817 12.5753233 1.8920041 17.1875 4.6875 C14.20724834 6.17762583 12.25091059 5.11884978 9.0625 4.3125 C-16.84248768 -2.2094616 -45.90378917 0.88186839 -68.97265625 14.65234375 C-71.47122692 16.0581213 -74.06127011 16.91151208 -76.8125 17.6875 C-76.8125 18.3475 -76.8125 19.0075 -76.8125 19.6875 C-78.2890625 20.703125 -78.2890625 20.703125 -80.4375 21.9375 C-91.42864621 29.01565903 -103.21322006 40.80223598 -108.8125 52.6875 C-109.4725 52.6875 -110.1325 52.6875 -110.8125 52.6875 C-110.93625 53.6775 -110.93625 53.6775 -111.0625 54.6875 C-111.71162893 57.2840157 -112.42639958 58.99526638 -113.6640625 61.31640625 C-115.86098798 65.63235905 -117.44501659 70.02515033 -118.9375 74.625 C-119.18886719 75.37201172 -119.44023437 76.11902344 -119.69921875 76.88867188 C-120.44288207 79.14496974 -121.13986356 81.40907123 -121.8125 83.6875 C-122.11595337 84.69574829 -122.11595337 84.69574829 -122.42553711 85.72436523 C-124.17027112 92.35840294 -124.15036852 99.01511931 -124.12817383 105.84204102 C-124.12503241 107.85424008 -124.14847795 109.8649367 -124.17382812 111.87695312 C-124.18157889 127.66525366 -120.20132316 141.43037134 -113.6953125 155.671875 C-112.54951393 158.28794606 -111.6519134 160.95940646 -110.8125 163.6875 C-110.1525 163.6875 -109.4925 163.6875 -108.8125 163.6875 C-107.375 165.515625 -107.375 165.515625 -105.8125 167.9375 C-105.296875 168.72640625 -104.78125 169.5153125 -104.25 170.328125 C-102.8125 172.6875 -102.8125 172.6875 -101.75390625 174.84375 C-99.03399962 180.17070406 -93.06510336 184.11309289 -88.60546875 187.91796875 C-88.01378906 188.50191406 -87.42210937 189.08585938 -86.8125 189.6875 C-86.8125 190.3475 -86.8125 191.0075 -86.8125 191.6875 C-86.049375 191.97625 -85.28625 192.265 -84.5 192.5625 C-81.8125 193.6875 -81.8125 193.6875 -78.8125 195.6875 C-78.8125 196.3475 -78.8125 197.0075 -78.8125 197.6875 C-77.884375 197.97625 -76.95625 198.265 -76 198.5625 C-72.8125 199.6875 -72.8125 199.6875 -69.8125 201.6875 C-69.8125 202.3475 -69.8125 203.0075 -69.8125 203.6875 C-69.255625 203.78546875 -68.69875 203.8834375 -68.125 203.984375 C-63.30042618 204.92973068 -59.38707945 206.27454232 -55.07421875 208.6015625 C-50.51652109 210.78988711 -45.62894923 212.17834591 -40.8125 213.6875 C-41.4725 214.3475 -42.1325 215.0075 -42.8125 215.6875 C-57.77880478 211.16160715 -71.63239917 205.76842514 -83.8125 195.6875 C-84.67230469 195.02105469 -85.53210938 194.35460937 -86.41796875 193.66796875 C-92.92621883 188.54216076 -98.51374553 183.05017761 -103.8125 176.6875 C-104.34359375 176.06617188 -104.8746875 175.44484375 -105.421875 174.8046875 C-110.57179319 168.40882136 -114.15660608 160.99732124 -117.8125 153.6875 C-118.30105469 152.74261719 -118.78960937 151.79773438 -119.29296875 150.82421875 C-130.7044653 126.56162147 -129.70475495 95.01143036 -120.92089844 70.16552734 C-116.28103277 58.15603277 -116.28103277 58.15603277 -112.8125 54.6875 C-112.53921875 53.95273437 -112.2659375 53.21796875 -111.984375 52.4609375 C-110.51751683 48.98937317 -108.38599451 46.24031723 -106.0625 43.3125 C-105.60931396 42.7359668 -105.15612793 42.15943359 -104.68920898 41.56542969 C-103.79519727 40.43268439 -102.89808953 39.30237415 -101.99755859 38.17480469 C-101.05580385 36.99285786 -100.12878654 35.79917156 -99.20703125 34.6015625 C-87.94122131 20.52755946 -69.09426221 8.48968879 -51.8125 3.6875 C-51.03261719 3.43355469 -50.25273437 3.17960937 -49.44921875 2.91796875 C-43.62939971 1.12521721 -37.84480664 0.18881445 -31.8125 -0.5 C-31.0894165 -0.58386963 -30.36633301 -0.66773926 -29.62133789 -0.75415039 C-19.62451859 -1.79015391 -9.94682911 -1.31793847 0 0 Z " fill="#FCF03E" transform="translate(294.8125,371.3125)"/>
<path d="M0 0 C-1.00417969 0.35191406 -2.00835937 0.70382812 -3.04296875 1.06640625 C-16.59158863 5.91412343 -28.66023711 12.0233961 -40 21 C-40.80824219 21.61875 -41.61648437 22.2375 -42.44921875 22.875 C-53.11769028 31.67090567 -63.01928505 45.04642419 -68 58 C-68.36448242 58.93416748 -68.36448242 58.93416748 -68.73632812 59.88720703 C-74.21075647 74.18337984 -76.93077988 88.63179001 -76 104 C-75.89751953 105.85431641 -75.89751953 105.85431641 -75.79296875 107.74609375 C-74.68237686 122.33972162 -69.92961082 136.52269685 -62.84765625 149.3203125 C-62 151 -62 151 -62 153 C-61.34 153 -60.68 153 -60 153 C-58 156 -58 156 -58 159 C-57.34 159 -56.68 159 -56 159 C-54.71211757 160.47144268 -53.49429673 162.0045715 -52.3125 163.5625 C-47.19427159 170.10605783 -42.11824138 175.65960892 -35 180 C-36.75 180.6875 -36.75 180.6875 -39 181 C-41.25 179.6875 -41.25 179.6875 -43 178 C-43 177.34 -43 176.68 -43 176 C-43.66 176 -44.32 176 -45 176 C-46.625 174.625 -46.625 174.625 -48 173 C-48 172.34 -48 171.68 -48 171 C-48.66 171 -49.32 171 -50 171 C-50 170.34 -50 169.68 -50 169 C-50.66 169 -51.32 169 -52 169 C-53.63139937 167.07412421 -55.13723225 165.15673283 -56.625 163.125 C-57.04523438 162.56941406 -57.46546875 162.01382813 -57.8984375 161.44140625 C-61 157.26235288 -61 157.26235288 -61 155 C-61.66 155 -62.32 155 -63 155 C-64 153 -65 151 -66 149 C-66.31324219 148.39671875 -66.62648437 147.7934375 -66.94921875 147.171875 C-79.09389499 123.55455995 -83.0256558 95.28286356 -74.953125 69.6796875 C-74.63859375 68.79539062 -74.3240625 67.91109375 -74 67 C-73.71125 65.88625 -73.4225 64.7725 -73.125 63.625 C-71.05029643 56.93984406 -67.50577435 51.02554966 -64 45 C-63.443125 43.9275 -62.88625 42.855 -62.3125 41.75 C-57.79314195 33.85001979 -51.08830267 25.75310992 -44 20 C-43.34 20 -42.68 20 -42 20 C-40.83851539 18.83851539 -39.68035189 17.67352213 -38.5390625 16.4921875 C-30.85280522 9.04002943 -21.77471754 4.37656146 -11.6875 1.125 C-10.99333984 0.8973999 -10.29917969 0.6697998 -9.58398438 0.43530273 C-3.45683992 -1.43960942 -3.45683992 -1.43960942 0 0 Z " fill="#FCF03D" transform="translate(252,381)"/>
<path d="M0 0 C9.24 0 18.48 0 28 0 C28 30.36 28 60.72 28 92 C27.34 92 26.68 92 26 92 C26 62.3 26 32.6 26 2 C18.08 2 10.16 2 2 2 C2 31.7 2 61.4 2 92 C1.34 92 0.68 92 0 92 C0 61.64 0 31.28 0 0 Z " fill="#F73A4A" transform="translate(975,440)"/>
<path d="M0 0 C-0.33 0.66 -0.66 1.32 -1 2 C-1.94359375 1.79503906 -2.8871875 1.59007812 -3.859375 1.37890625 C-30.03909096 -4.11462852 -55.06891 -1.75458874 -78 13 C-80.738206 15.05548976 -83.38153131 17.16550369 -85.9765625 19.3984375 C-88 21 -88 21 -91 22 C-91.71539645 23.30783414 -92.37654073 24.64592439 -93 26 C-93.95880034 27.28187437 -94.95993957 28.5331293 -96 29.75 C-96.515625 30.36359375 -97.03125 30.9771875 -97.5625 31.609375 C-99 33 -99 33 -101 33 C-101.10054687 33.57621094 -101.20109375 34.15242188 -101.3046875 34.74609375 C-102.12882889 37.41760827 -103.36775243 38.89155065 -105.125 41.0625 C-113.4478252 52.57717157 -118.03008632 68.56692993 -118.6875 82.6875 C-118.72584961 83.47133057 -118.76419922 84.25516113 -118.80371094 85.06274414 C-119.42889721 100.21422636 -116.28712309 112.82734797 -111.0859375 126.93359375 C-110 130 -110 130 -109.4765625 132.34765625 C-109.31929687 132.89292969 -109.16203125 133.43820312 -109 134 C-108.34 134.33 -107.68 134.66 -107 135 C-106.27306096 136.97888961 -105.60183749 138.97954558 -105 141 C-117.44565566 129.41629009 -121.32979384 108.4665343 -122.02709961 92.01049805 C-122.44662438 69.92681823 -114.62624809 47.30901785 -101 30 C-100.34 30 -99.68 30 -99 30 C-98.7525 29.38125 -98.505 28.7625 -98.25 28.125 C-96.76259631 25.59641373 -95.56321991 25.28160996 -93 24 C-92.7215625 23.39929688 -92.443125 22.79859375 -92.15625 22.1796875 C-86.39034362 11.31017479 -68.07728281 3.62831694 -57 0 C-38.2953086 -5.30776501 -18.63179608 -6.21059869 0 0 Z " fill="#FBED40" transform="translate(305,390)"/>
<path d="M0 0 C0.66 0 1.32 0 2 0 C2.6483289 2.22844214 3.29356369 4.4577846 3.9375 6.6875 C4.47697266 8.54955078 4.47697266 8.54955078 5.02734375 10.44921875 C9.40694439 26.43739942 8.26742305 44.37812204 3 60 C2.66484375 61.03382813 2.3296875 62.06765625 1.984375 63.1328125 C1.06973491 65.79688324 0.07766478 68.39814798 -1 71 C-1.27199219 71.65742187 -1.54398437 72.31484375 -1.82421875 72.9921875 C-3.94864955 77.62556145 -6.76775796 81.794874 -9.625 86 C-10.21994263 86.88341064 -10.21994263 86.88341064 -10.8269043 87.78466797 C-11.83116012 89.22845899 -12.91008871 90.61972624 -14 92 C-14.66 92 -15.32 92 -16 92 C-16.2578125 92.58136719 -16.515625 93.16273438 -16.78125 93.76171875 C-20.91107035 101.34629266 -28.9464223 106.40227845 -36 111 C-36.73863281 111.48726562 -37.47726562 111.97453125 -38.23828125 112.4765625 C-45.07136824 116.87753378 -45.07136824 116.87753378 -49 118 C-49.99 117.67 -50.98 117.34 -52 117 C-50.71086513 116.32845067 -49.41859796 115.66291141 -48.125 115 C-47.40570313 114.62875 -46.68640625 114.2575 -45.9453125 113.875 C-44 113 -44 113 -42 113 C-42 112.34 -42 111.68 -42 111 C-41.22076172 110.65388672 -41.22076172 110.65388672 -40.42578125 110.30078125 C-35.73161251 108.10554153 -32.60197406 105.79667536 -29 102 C-26.5 100.5 -26.5 100.5 -24 99 C-17.29437349 92.82419213 -17.29437349 92.82419213 -13 85 C-12 84 -11 83 -10 82 C-9.505 80.515 -9.505 80.515 -9 79 C-8.34 79 -7.68 79 -7 79 C-6.88398438 78.45859375 -6.76796875 77.9171875 -6.6484375 77.359375 C-5.8719231 74.53398525 -4.77671641 71.94431839 -3.625 69.25 C-3.17769531 68.18265625 -2.73039062 67.1153125 -2.26953125 66.015625 C-1.54472322 64.29392716 -0.81573767 62.57394195 -0.07421875 60.859375 C7.71597941 41.84330155 4.75073223 19.36347558 0 0 Z " fill="#E6B93B" transform="translate(364,448)"/>
<path d="M0 0 C0.99 0 1.98 0 3 0 C3 30.36 3 60.72 3 92 C2.01 91.67 1.02 91.34 0 91 C0 60.97 0 30.94 0 0 Z " fill="#FD752F" transform="translate(589,442)"/>
<path d="M0 0 C1.16660156 -0.01224609 2.33320313 -0.02449219 3.53515625 -0.03710938 C5.20384766 -0.04000977 5.20384766 -0.04000977 6.90625 -0.04296875 C7.93041016 -0.04707764 8.95457031 -0.05118652 10.00976562 -0.05541992 C12.5 0.1875 12.5 0.1875 14.5 2.1875 C14.74609566 4.01095009 14.74609566 4.01095009 14.74050903 6.26235962 C14.74325836 7.11493851 14.74600769 7.9675174 14.74884033 8.84593201 C14.74164978 9.78316605 14.73445923 10.72040009 14.72705078 11.68603516 C14.72734283 12.67143784 14.72763489 13.65684052 14.72793579 14.67210388 C14.72653864 17.94034528 14.71095927 21.20836076 14.6953125 24.4765625 C14.69158374 26.73814774 14.68873612 28.99973459 14.68673706 31.26132202 C14.67908981 37.22245724 14.65943194 43.18349547 14.6373291 49.14459229 C14.61689417 55.22398567 14.60774038 61.30339469 14.59765625 67.3828125 C14.57618709 79.31775102 14.542038 91.25261745 14.5 103.1875 C13.84 103.1875 13.18 103.1875 12.5 103.1875 C12.5 70.1875 12.5 37.1875 12.5 3.1875 C3.26 3.5175 -5.98 3.8475 -15.5 4.1875 C-15.17 3.1975 -14.84 2.2075 -14.5 1.1875 C-10.26620814 -0.92939593 -4.65160218 0.00256995 0 0 Z " fill="#FFA53D" transform="translate(421.5,407.8125)"/>
<path d="M0 0 C0.66 0 1.32 0 2 0 C1.42630732 3.35434597 0.56815779 6.11659447 -0.875 9.1875 C-9.29341066 29.80338889 -7.44774449 54.29549748 0.8125 74.625 C3.6006754 80.59267366 6.96720654 85.80885097 11 91 C11.60585937 91.83144531 12.21171875 92.66289063 12.8359375 93.51953125 C18.46546315 100.99875819 25.22310395 106.81540263 33 112 C32.67 112.66 32.34 113.32 32 114 C30.49460339 113.05016642 28.99579653 112.08988109 27.5 111.125 C26.6646875 110.59132813 25.829375 110.05765625 24.96875 109.5078125 C24.3190625 109.01023437 23.669375 108.51265625 23 108 C23 107.34 23 106.68 23 106 C22.01 106 21.02 106 20 106 C20 105.34 20 104.68 20 104 C19.1028125 103.62875 19.1028125 103.62875 18.1875 103.25 C15.68373081 101.81927475 14.51927612 100.4308418 13 98 C13 97.34 13 96.68 13 96 C12.08541016 95.63261719 12.08541016 95.63261719 11.15234375 95.2578125 C8.57081955 93.74919037 7.89581112 92.52316811 6.5625 89.875 C5.00505905 86.87442569 3.39786922 84.04623364 1.5 81.25 C-9.32046337 63.9644799 -11.47092624 41.35339061 -7.62890625 21.6328125 C-5.8412927 14.14926262 -2.92089655 7.10207841 0 0 Z " fill="#FAEC39" transform="translate(198,440)"/>
<path d="M0 0 C8.5880572 -0.02312635 17.17610149 -0.04091658 25.76418209 -0.05181217 C29.751572 -0.05704036 33.73894067 -0.06413684 37.72631836 -0.07543945 C41.57125114 -0.08627061 45.41616345 -0.09227732 49.26111031 -0.09487724 C50.73118983 -0.09673108 52.20126818 -0.10035091 53.67133904 -0.10573006 C55.72354467 -0.11294355 57.77566467 -0.11399081 59.82788086 -0.11352539 C61.58327431 -0.11685631 61.58327431 -0.11685631 63.37413025 -0.12025452 C66 0 66 0 67 1 C67.04063832 2.66617115 67.042721 4.33388095 67 6 C64.28598706 7.35700647 62.15153684 7.1123861 59.1171875 7.09765625 C57.95058594 7.09443359 56.78398437 7.09121094 55.58203125 7.08789062 C54.35871094 7.07951172 53.13539063 7.07113281 51.875 7.0625 C50.64394531 7.05798828 49.41289062 7.05347656 48.14453125 7.04882812 C45.09630608 7.0370133 42.04817686 7.02054028 39 7 C42.25389988 4.83073341 43.13395957 4.75919951 46.88671875 4.8046875 C47.82451172 4.81113281 48.76230469 4.81757812 49.72851562 4.82421875 C51.19321289 4.84935547 51.19321289 4.84935547 52.6875 4.875 C53.67556641 4.88402344 54.66363281 4.89304687 55.68164062 4.90234375 C58.12133765 4.9259157 60.56054697 4.95881978 63 5 C63.33 4.01 63.66 3.02 64 2 C63.2277005 2.00444122 62.455401 2.00888245 61.65969849 2.01345825 C54.39055363 2.05349004 47.12146202 2.08396143 39.85223579 2.10362434 C36.1148217 2.11407298 32.3774985 2.1282517 28.64013672 2.15087891 C25.035095 2.17256904 21.43014083 2.18456049 17.82503891 2.18975449 C16.44788102 2.19345716 15.07072806 2.20068734 13.69360733 2.21146011 C11.76860455 2.22592335 9.84351413 2.22681648 7.91845703 2.22705078 C6.82147491 2.231492 5.7244928 2.23593323 4.5942688 2.24050903 C2 2 2 2 0 0 Z " fill="#E2B629" transform="translate(320,582)"/>
<path d="M0 0 C4.31248609 -0.02886537 8.62494762 -0.04675255 12.9375 -0.0625 C14.16919922 -0.07087891 15.40089844 -0.07925781 16.66992188 -0.08789062 C17.83974609 -0.09111328 19.00957031 -0.09433594 20.21484375 -0.09765625 C21.84087524 -0.10551147 21.84087524 -0.10551147 23.49975586 -0.11352539 C26 0 26 0 27 1 C27.09396057 2.93306498 27.11743517 4.86958838 27.11352539 6.80493164 C27.11344986 8.04614273 27.11337433 9.28735382 27.11329651 10.56617737 C27.10818911 11.9308374 27.1029731 13.29549702 27.09765625 14.66015625 C27.095792 16.04878183 27.09436813 17.43740807 27.09336853 18.82603455 C27.08954387 22.48721115 27.07971403 26.1483483 27.06866455 29.80950928 C27.05844932 33.54292263 27.05387067 37.27634234 27.04882812 41.00976562 C27.03809171 48.33986177 27.02101591 55.66992536 27 63 C26.67 63 26.34 63 26 63 C25.67 43.2 25.34 23.4 25 3 C17.41 3.33 9.82 3.66 2 4 C1.67 23.47 1.34 42.94 1 63 C0.67 63 0.34 63 0 63 C-0.15371916 55.08123253 -0.30190064 47.16238929 -0.4429636 39.24338722 C-0.50863598 35.56649721 -0.57623368 31.88966339 -0.64819336 28.21289062 C-0.71753528 24.66628415 -0.78186953 21.1196193 -0.84269524 17.5728569 C-0.86681786 16.21800804 -0.89276147 14.86319036 -0.92053413 13.50841141 C-0.95904959 11.61458557 -0.99055898 9.72062114 -1.02172852 7.82666016 C-1.04171402 6.74744293 -1.06169952 5.66822571 -1.08229065 4.55630493 C-1 2 -1 2 0 0 Z " fill="#FD963F" transform="translate(504,439)"/>
<path d="M0 0 C0.99708984 0.11794922 1.99417969 0.23589844 3.02148438 0.35742188 C8.34816487 1.04850817 12.5753233 1.8920041 17.1875 4.6875 C14.20724834 6.17762583 12.25091059 5.11884978 9.0625 4.3125 C-16.8476635 -2.21076469 -45.8554715 0.91926997 -68.98046875 14.58203125 C-69.58503906 14.94683594 -70.18960938 15.31164062 -70.8125 15.6875 C-74.25 17.5625 -74.25 17.5625 -76.8125 18.6875 C-77.4725 18.3575 -78.1325 18.0275 -78.8125 17.6875 C-70.96021036 11.07121891 -61.68331134 6.43036262 -51.8125 3.6875 C-51.03261719 3.43355469 -50.25273437 3.17960937 -49.44921875 2.91796875 C-43.62939971 1.12521721 -37.84480664 0.18881445 -31.8125 -0.5 C-31.0894165 -0.58386963 -30.36633301 -0.66773926 -29.62133789 -0.75415039 C-19.62451859 -1.79015391 -9.94682911 -1.31793847 0 0 Z " fill="#F3DB44" transform="translate(294.8125,371.3125)"/>
<path d="M0 0 C0.33 0 0.66 0 1 0 C1 5.61 1 11.22 1 17 C1.66 17 2.32 17 3 17 C3 17.66 3 18.32 3 19 C-4.72110491 19.02348362 -12.44220098 19.0410941 -20.16333294 19.05181217 C-23.75107295 19.0569641 -27.33878801 19.06391604 -30.92651367 19.07543945 C-47.30933889 19.12671509 -63.64206124 19.02446457 -80 18 C-80 17.67 -80 17.34 -80 17 C-53.6 17 -27.2 17 0 17 C0 11.39 0 5.78 0 0 Z " fill="#FE9429" transform="translate(492,515)"/>
<path d="M0 0 C0.33 0 0.66 0 1 0 C1 20.46 1 40.92 1 62 C-5.93 62 -12.86 62 -20 62 C-20.66 61.34 -21.32 60.68 -22 60 C-15.4 60 -8.8 60 -2 60 C-1.97494385 58.28901123 -1.9498877 56.57802246 -1.92407227 54.81518555 C-1.84019068 49.1633273 -1.7519239 43.51154895 -1.66066074 37.85980511 C-1.60548647 34.43301772 -1.55207534 31.00622172 -1.50268555 27.5793457 C-1.44583335 23.64004749 -1.38132688 19.7008926 -1.31640625 15.76171875 C-1.29969376 14.53039719 -1.28298126 13.29907562 -1.26576233 12.03044128 C-1.24581711 10.88948502 -1.22587189 9.74852875 -1.20532227 8.57299805 C-1.18977798 7.567061 -1.1742337 6.56112396 -1.15821838 5.52470398 C-1 3 -1 3 0 0 Z " fill="#F9503E" transform="translate(749,472)"/>
<path d="M0 0 C-0.33 0.66 -0.66 1.32 -1 2 C-1.94359375 1.79503906 -2.8871875 1.59007812 -3.859375 1.37890625 C-30.41792901 -4.19412366 -54.61081994 -1.4088072 -78 13 C-80.41194281 14.59460671 -82.70484094 16.23859886 -85 18 C-85 17.01 -85 16.02 -85 15 C-82.98409524 13.39156535 -81.05590559 12.03890608 -78.875 10.6875 C-78.23900879 10.29087158 -77.60301758 9.89424316 -76.94775391 9.4855957 C-54.08303137 -4.4289955 -25.63570097 -8.54523366 0 0 Z " fill="#F3DA45" transform="translate(305,390)"/>
<path d="M0 0 C0 0.99 0 1.98 0 3 C-1.69270833 1.99088542 -3.38541667 0.98177083 -5.078125 -0.02734375 C-11.3046773 -3.17858668 -19.63602081 -3.05213586 -26.1875 -0.9375 C-32.61554709 1.91354347 -37.56421906 6.25772624 -40.5 12.6875 C-43.4764686 21.37878831 -42.895867 29.77539188 -39 38 C-38.04710343 39.69403834 -37.06639644 41.37501495 -36 43 C-38.58482579 41.99749943 -39.7872047 41.35600992 -41.23046875 38.94140625 C-41.54628906 38.15636719 -41.86210937 37.37132812 -42.1875 36.5625 C-42.51105469 35.78003906 -42.83460938 34.99757813 -43.16796875 34.19140625 C-46.06546989 26.55995959 -45.68393767 19.11431301 -43.109375 11.390625 C-40.22938819 5.18445624 -35.05943483 0.08912364 -29 -3 C-19.13053718 -6.24257037 -8.61380492 -6.0688171 0 0 Z " fill="#F3DD42" transform="translate(294,508)"/>
<path d="M0 0 C4.73639133 2.77252175 7.9075537 5.95632979 11.38671875 10.1953125 C13.06481085 12.2242221 13.06481085 12.2242221 16 14 C16 14.66 16 15.32 16 16 C16.763125 16.28875 17.52625 16.5775 18.3125 16.875 C21 18 21 18 24 20 C24 20.66 24 21.32 24 22 C24.928125 22.28875 25.85625 22.5775 26.8125 22.875 C30 24 30 24 33 26 C33 26.66 33 27.32 33 28 C33.556875 28.09796875 34.11375 28.1959375 34.6875 28.296875 C39.51207382 29.24223068 43.42542055 30.58704232 47.73828125 32.9140625 C52.29597891 35.10238711 57.18355077 36.49084591 62 38 C61.34 38.66 60.68 39.32 60 40 C45.03539894 35.47462236 31.17712907 30.08266287 19 20 C18.12859375 19.32195313 17.2571875 18.64390625 16.359375 17.9453125 C10.32593734 13.18120462 4.58846316 8.21874806 0 2 C0 1.34 0 0.68 0 0 Z " fill="#F7E438" transform="translate(192,547)"/>
<path d="M0 0 C5.95776317 0.70091331 9.67508401 3.61486056 13.75 7.875 C18.05183483 13.84977059 18.91494919 19.78082771 18 27 C17.01273802 29.92616308 15.66454955 32.40747858 14 35 C13.443125 35.9075 12.88625 36.815 12.3125 37.75 C7.19223092 42.73188343 1.55027234 44.2704249 -5.5 44.625 C-12.02960573 44.41856047 -16.2928531 42.4965363 -21 38 C-23.0625 35.125 -23.0625 35.125 -24 33 C-22.0625 33.8125 -22.0625 33.8125 -20 35 C-19.67 35.99 -19.34 36.98 -19 38 C-16.75256244 39.15020525 -16.75256244 39.15020525 -14 40 C-13.05125 40.37125 -12.1025 40.7425 -11.125 41.125 C-5.68570302 42.64800315 -1.75738357 42.58623107 3.25 40 C3.89453125 39.62875 4.5390625 39.2575 5.203125 38.875 C7 38 7 38 10 38 C10.28875 37.21625 10.5775 36.4325 10.875 35.625 C12 33 12 33 14 31 C16.07286603 24.84826854 16.05444727 17.45547539 13.3125 11.5625 C10.13795933 6.10451779 5.62148651 3.61464489 0 1 C0 0.67 0 0.34 0 0 Z " fill="#EFD049" transform="translate(282,406)"/>
<path d="M0 0 C1.17111328 -0.020625 2.34222656 -0.04125 3.54882812 -0.0625 C4.66580078 -0.06765625 5.78277344 -0.0728125 6.93359375 -0.078125 C7.96411865 -0.0874707 8.99464355 -0.09681641 10.05639648 -0.10644531 C10.88341064 0.01118164 11.7104248 0.12880859 12.5625 0.25 C13.2225 1.24 13.8825 2.23 14.5625 3.25 C13.9025 4.57 13.2425 5.89 12.5625 7.25 C12.5625 5.93 12.5625 4.61 12.5625 3.25 C4.3125 3.25 -3.9375 3.25 -12.4375 3.25 C-12.41429687 7.29507812 -12.39109375 11.34015625 -12.3671875 15.5078125 C-12.3543157 18.74343747 -12.34347358 21.97905515 -12.33399963 25.21469116 C-12.32346064 28.62462546 -12.30938847 32.0344595 -12.28662109 35.44433594 C-12.260633 39.36131561 -12.25100822 43.27825507 -12.2421875 47.1953125 C-12.23186493 48.41115021 -12.22154236 49.62698792 -12.21090698 50.87966919 C-12.21075592 52.02039886 -12.21060486 53.16112854 -12.21044922 54.33642578 C-12.206008 55.33570099 -12.20156677 56.3349762 -12.19699097 57.36453247 C-12.46464222 60.57563426 -13.31006173 63.24169467 -14.4375 66.25 C-14.7675 66.25 -15.0975 66.25 -15.4375 66.25 C-15.36857544 65.53144333 -15.29965088 64.81288666 -15.2286377 64.07255554 C-14.54841547 56.54598461 -14.2499745 49.07412245 -14.15625 41.51953125 C-14.11851363 39.14778608 -14.08075253 36.77604129 -14.04296875 34.40429688 C-13.98902699 30.7063168 -13.93674556 27.00831771 -13.88525391 23.31030273 C-13.83377038 19.71330482 -13.77650491 16.11643305 -13.71875 12.51953125 C-13.70517456 11.40302689 -13.69159912 10.28652252 -13.6776123 9.13618469 C-13.66089478 8.11389267 -13.64417725 7.09160065 -13.62695312 6.03833008 C-13.61442505 5.13520584 -13.60189697 4.2320816 -13.58898926 3.30158997 C-13.18510962 -2.16807447 -4.12725002 0.0181119 0 0 Z " fill="#FC8B44" transform="translate(577.4375,438.75)"/>
<path d="M0 0 C0.99386719 0.00902344 1.98773438 0.01804687 3.01171875 0.02734375 C4.15060547 0.04474609 4.15060547 0.04474609 5.3125 0.0625 C5.3125 0.7225 5.3125 1.3825 5.3125 2.0625 C4.63445312 2.09988281 3.95640625 2.13726562 3.2578125 2.17578125 C-3.1290042 2.62692758 -9.89216703 3.12513946 -15.6875 6.0625 C-16.84690768 8.00108444 -16.84690768 8.00108444 -17.6875 10.0625 C-18.8940625 11.17625 -18.8940625 11.17625 -20.125 12.3125 C-25.32153727 17.8892717 -26.19198723 23.8384598 -25.984375 31.3125 C-25.3676394 37.02541923 -23.29602379 41.99289073 -20.6875 47.0625 C-22.5 46.5 -22.5 46.5 -24.6875 45.0625 C-28.99665442 36.60378948 -29.93133123 28.19702638 -27.625 19 C-25.07844474 11.40749266 -20.50715443 6.73723219 -13.4375 3.125 C-8.77345142 0.98851812 -5.15452696 -0.06064149 0 0 Z " fill="#EDCC43" transform="translate(329.6875,450.9375)"/>
<path d="M0 0 C3.50224465 -0.43778058 5.58792915 0.18537474 8.58984375 1.84765625 C13.10383207 4.1742948 17.65026284 5.46826157 22.5625 6.6875 C23.37396484 6.89955078 24.18542969 7.11160156 25.02148438 7.33007812 C41.58787598 11.56861415 57.43009586 10.49507268 74 7 C75.66649844 6.66582666 77.33308578 6.33209316 79 6 C79 6.66 79 7.32 79 8 C77.10454608 8.48066535 75.20861961 8.95946743 73.3125 9.4375 C71.72888672 9.83775391 71.72888672 9.83775391 70.11328125 10.24609375 C63.11498642 11.94078748 56.61153902 12.21938457 49.40966797 12.24023438 C47.40189685 12.24987091 45.39426651 12.2810399 43.38671875 12.3125 C35.40184514 12.34428059 28.56481304 11.54615289 21 9 C19.7625 8.649375 18.525 8.29875 17.25 7.9375 C16.1775 7.628125 15.105 7.31875 14 7 C12.68759773 6.62465813 11.37509882 6.24965395 10.0625 5.875 C9.051875 5.58625 8.04125 5.2975 7 5 C7 4.34 7 3.68 7 3 C6.401875 2.87625 5.80375 2.7525 5.1875 2.625 C3 2 3 2 0 0 Z " fill="#F0D447" transform="translate(229,571)"/>
<path d="M0 0 C0.33 0.66 0.66 1.32 1 2 C0.360625 2.9075 -0.27875 3.815 -0.9375 4.75 C-4.0519876 9.65767743 -4.38841842 13.17372369 -4 19 C-2.657924 24.55851949 -0.55099152 28.37989311 4 32 C9.65075024 34.98530202 15.20258788 36.88900656 21.51953125 35.41015625 C27.71040406 33.24752752 31.26392163 30.31435569 35 25 C35.61875 24.195625 36.2375 23.39125 36.875 22.5625 C37.24625 22.046875 37.6175 21.53125 38 21 C37.54271062 25.91586083 36.50084733 28.49915267 33 32 C25.49501754 37.37150963 19.27790116 39.02448288 10 38 C2.88404317 35.47058172 -1.10404161 31.38563999 -4.75 24.875 C-7.09889323 18.9640489 -7.0483243 11.89581518 -4.6875 6 C-3.28826374 3.51246887 -2.19799424 1.77932867 0 0 Z " fill="#EBC948" transform="translate(313,464)"/>
<path d="M0 0 C-0.66 0.66 -1.32 1.32 -2 2 C-3.093125 1.505 -4.18625 1.01 -5.3125 0.5 C-13.20078079 -2.40767316 -21.08454568 -1.832256 -28.70703125 1.609375 C-34.42502728 5.0771886 -38.5572383 10.43166937 -40.56640625 16.80859375 C-42.18683629 24.99833478 -40.82185202 32.25670368 -38 40 C-38.99 39.67 -39.98 39.34 -41 39 C-45.11992261 30.45497533 -45.06193625 21.27146735 -42.09375 12.421875 C-39.02758708 5.63251424 -33.74975484 0.8980512 -27.01171875 -2.15625 C-18.18832965 -4.62817224 -8.20138751 -4.10069375 0 0 Z " fill="#F3DA44" transform="translate(293,403)"/>
<path d="M0 0 C7.38128171 1.41627301 14.92887676 7.58645365 20 13 C20 13.66 20 14.32 20 15 C20.57878906 15.23460937 21.15757812 15.46921875 21.75390625 15.7109375 C28.49047169 19.57714027 33.22813432 28.33904572 37 35 C37.40476562 35.70382812 37.80953125 36.40765625 38.2265625 37.1328125 C41.10122308 42.43235684 41.10122308 42.43235684 40.6015625 45.234375 C40.40304687 45.81703125 40.20453125 46.3996875 40 47 C39.16180842 45.37750059 38.3295884 43.75191503 37.5 42.125 C37.0359375 41.22007812 36.571875 40.31515625 36.09375 39.3828125 C35 37 35 37 35 35 C34.34 35 33.68 35 33 35 C31.80859375 33.1640625 31.80859375 33.1640625 30.4375 30.625 C27.00469578 24.69331624 22.72077228 19.93294182 18 15 C17.195625 14.113125 16.39125 13.22625 15.5625 12.3125 C10.99943236 8.19460969 5.87261371 3.9575379 0 2 C0 1.34 0 0.68 0 0 Z " fill="#E9C33B" transform="translate(323,399)"/>
<path d="M0 0 C0.33 0 0.66 0 1 0 C1.03738281 0.94101562 1.07476562 1.88203125 1.11328125 2.8515625 C1.17902344 4.09679687 1.24476563 5.34203125 1.3125 6.625 C1.37050781 7.85476563 1.42851562 9.08453125 1.48828125 10.3515625 C2.02295094 14.16363494 3.12539214 16.66844302 5 20 C5.268125 20.7425 5.53625 21.485 5.8125 22.25 C7.64590695 24.95186287 9.91374582 25.16908541 13 26 C13.94875 26.391875 14.8975 26.78375 15.875 27.1875 C22.28601291 28.85436336 28.33684265 27.19196141 34 24 C36.53572451 21.48416353 38.80170182 18.81301987 41 16 C41.495 16.99 41.495 16.99 42 18 C38.09718521 24.3057243 34.32851405 28.17361484 27 30 C20.44847847 30.8119407 13.69938701 30.63125502 8 27 C3.01996586 22.45301231 -0.70718617 17.86613511 -1.23046875 10.95703125 C-1.21628906 9.91933594 -1.20210937 8.88164062 -1.1875 7.8125 C-1.18105469 6.76707031 -1.17460937 5.72164063 -1.16796875 4.64453125 C-1 2 -1 2 0 0 Z " fill="#FAEB44" transform="translate(204,472)"/>
<path d="M0 0 C0.66 0 1.32 0 2 0 C2.78052199 1.91274164 3.54875449 3.830498 4.3125 5.75 C4.74175781 6.81734375 5.17101562 7.8846875 5.61328125 8.984375 C9.40080357 19.51123638 10.45058522 29.20666708 10.3125 40.375 C10.31461127 41.71484604 10.31786147 43.05469078 10.32226562 44.39453125 C10.2889733 50.40530892 10.15665572 55.33012583 8 61 C7.34 61 6.68 61 6 61 C6.2165625 59.44152344 6.2165625 59.44152344 6.4375 57.8515625 C8.70671412 41.07148045 9.2854932 21.44813261 0.91015625 5.98828125 C0 4 0 4 0 0 Z " fill="#E4B93A" transform="translate(355,440)"/>
<path d="M0 0 C0.66 0 1.32 0 2 0 C-0.64903111 14.74394944 -8.2538126 27.30843749 -18.3125 38.25 C-19.0859375 39.09159668 -19.0859375 39.09159668 -19.875 39.95019531 C-22.21666878 42.41324981 -23.72843081 43.90947694 -27 45 C-25.59951732 41.77464595 -23.96578717 39.85338436 -21.375 37.5 C-11.28655233 27.6122267 -3.56597287 13.65802231 0 0 Z " fill="#E7BF3E" transform="translate(360,502)"/>
<path d="M0 0 C0.66 0 1.32 0 2 0 C2.15855469 0.9178125 2.31710937 1.835625 2.48046875 2.78125 C3.73852794 9.3982243 4.8994189 14.96253917 8.9140625 20.44921875 C10 22 10 22 11 25 C12.74867483 26.08431094 12.74867483 26.08431094 15 27 C15.94875 27.515625 16.8975 28.03125 17.875 28.5625 C23.28600426 31.05156196 28.48078144 31.11810584 34.375 31.0625 C35.62023437 31.05347656 36.86546875 31.04445313 38.1484375 31.03515625 C39.08945312 31.02355469 40.03046875 31.01195312 41 31 C40.67 31.66 40.34 32.32 40 33 C18.0607838 33.67313504 18.0607838 33.67313504 8.82421875 25.08984375 C2.87594219 18.27543698 -0.43904689 9.00046133 0 0 Z " fill="#FD943F" transform="translate(504,503)"/>
<path d="M0 0 C5.05830117 1.29398402 7.47835575 3.20746004 11 7 C11.845625 7.639375 12.69125 8.27875 13.5625 8.9375 C16.38273411 11.32385194 18.00237719 13.90690661 20 17 C20.7425 17.7425 21.485 18.485 22.25 19.25 C22.8275 19.8275 23.405 20.405 24 21 C24 21.66 24 22.32 24 23 C24.66 23 25.32 23 26 23 C26 23.99 26 24.98 26 26 C26.99 26.33 27.98 26.66 29 27 C32 32.22222222 32 32.22222222 32 35 C31.34 35 30.68 35 30 35 C28.95825306 33.45712116 27.9937241 31.86199674 27.0625 30.25 C20.83790066 20.2186209 12.48724821 12.18034836 3.70825195 4.38867188 C2.45674785 3.27622378 1.22603938 2.14045199 0 1 C0 0.67 0 0.34 0 0 Z " fill="#E6BA37" transform="translate(336,395)"/>
<path d="M0 0 C0.66 0 1.32 0 2 0 C-1.99578169 9.09456561 -11.31019436 16.98189124 -19 23 C-19.66 23 -20.32 23 -21 23 C-21 23.66 -21 24.32 -21 25 C-23.5546875 26.7265625 -23.5546875 26.7265625 -26.875 28.625 C-28.51082031 29.57246094 -28.51082031 29.57246094 -30.1796875 30.5390625 C-33 32 -33 32 -35 32 C-35 31.34 -35 30.68 -35 30 C-33.08292217 28.74698831 -31.11334888 27.57402736 -29.125 26.4375 C-22.70560185 22.65037149 -17.34348985 18.21266995 -12 13 C-11.113125 12.154375 -10.22625 11.30875 -9.3125 10.4375 C-6.60311708 7.58166395 -4.07111434 4.5975008 -1.55078125 1.57421875 C-0.78314453 0.79498047 -0.78314453 0.79498047 0 0 Z " fill="#EABF42" transform="translate(359,540)"/>
<path d="M0 0 C1.41346662 2.67121235 2.41542445 5.22538495 3.25 8.125 C6.74061982 18.64870035 12.98113812 27.30734576 22.91796875 32.53515625 C24.80232467 33.38896613 26.70132006 34.21164891 28.6171875 34.9921875 C31 36 31 36 34 38 C25.72509407 38.57617863 19.78286985 33.95390763 13.46875 29.0234375 C6.82779028 22.9510531 1.02117629 14.35914326 -0.4296875 5.32421875 C-0.4375 3.125 -0.4375 3.125 0 0 Z " fill="#F82C4D" transform="translate(1018,496)"/>
<path d="M0 0 C11.15890978 9.29909148 21.19095849 19.44556981 27 33 C27 33.99 27 34.98 27 36 C24.57910566 33.09492679 22.68426478 30.36852957 21 27 C20.34 26.67 19.68 26.34 19 26 C18.18164987 24.61024048 17.41827248 23.1877413 16.6875 21.75 C14.5478593 17.74454167 12.27836403 15.09102894 9 12 C9 11.34 9 10.68 9 10 C8.34 10 7.68 10 7 10 C7 9.34 7 8.68 7 8 C6.34 8 5.68 8 5 8 C3.62517293 6.36739286 2.29352333 4.69774938 1 3 C0.34 2.34 -0.32 1.68 -1 1 C-0.67 0.67 -0.34 0.34 0 0 Z " fill="#E7BA3C" transform="translate(348,396)"/>
<path d="M0 0 C3 3.75 3 3.75 3 6 C3.66 6 4.32 6 5 6 C7 9 7 9 7 12 C7.66 12 8.32 12 9 12 C10.28788243 13.47144268 11.50570327 15.0045715 12.6875 16.5625 C17.80572841 23.10605783 22.88175862 28.65960892 30 33 C28.25 33.6875 28.25 33.6875 26 34 C23.75 32.6875 23.75 32.6875 22 31 C22 30.34 22 29.68 22 29 C21.34 29 20.68 29 20 29 C18.375 27.625 18.375 27.625 17 26 C17 25.34 17 24.68 17 24 C16.34 24 15.68 24 15 24 C15 23.34 15 22.68 15 22 C14.34 22 13.68 22 13 22 C11.36860063 20.07412421 9.86276775 18.15673283 8.375 16.125 C7.95476562 15.56941406 7.53453125 15.01382813 7.1015625 14.44140625 C4 10.26235288 4 10.26235288 4 8 C3.34 8 2.68 8 2 8 C0.93224776 6.03533587 -0.06553465 4.03144641 -1 2 C-0.67 1.34 -0.34 0.68 0 0 Z " fill="#FAEB39" transform="translate(187,528)"/>
<path d="M0 0 C2 3 2 3 2 5 C-10.87 5 -23.74 5 -37 5 C-36.67 3.68 -36.34 2.36 -36 1 C-36 1.66 -36 2.32 -36 3 C-24.12 3 -12.24 3 0 3 C0 2.01 0 1.02 0 0 Z " fill="#F6415C" transform="translate(1082,473)"/>
<path d="M0 0 C1.81455688 0.07069702 1.81455688 0.07069702 3.66577148 0.14282227 C5.62353516 0.21533203 5.62353516 0.21533203 7.62084961 0.28930664 C9.00952598 0.34583683 10.39819781 0.40247892 11.78686523 0.45922852 C13.17942544 0.51243399 14.5720035 0.56517448 15.96459961 0.61743164 C19.38472504 0.74760943 22.80459448 0.88259032 26.22436523 1.02172852 C27.97001635 4.23812506 28.42880223 6.34186256 28.22436523 10.02172852 C26.22436523 8.02172852 26.22436523 8.02172852 25.22436523 4.02172852 C16.64436523 4.02172852 8.06436523 4.02172852 -0.77563477 4.02172852 C-1.10563477 4.68172852 -1.43563477 5.34172852 -1.77563477 6.02172852 C-2.43563477 6.02172852 -3.09563477 6.02172852 -3.77563477 6.02172852 C-3.81835577 4.35560946 -3.81627309 2.68789967 -3.77563477 1.02172852 C-2.77563477 0.02172852 -2.77563477 0.02172852 0 0 Z " fill="#F9494B" transform="translate(866.775634765625,438.978271484375)"/>
<path d="M0 0 C2.18641777 1.01441906 4.08082198 2.06045985 6.015625 3.5078125 C13.57831808 8.98150994 21.06547927 9.13201781 30 8 C33.12428186 6.9826868 35.21204089 5.80397354 38 4 C38.99 3.67 39.98 3.34 41 3 C41 3.66 41 4.32 41 5 C39.35546875 6.25390625 39.35546875 6.25390625 37.1875 7.5625 C36.12595703 8.21412109 36.12595703 8.21412109 35.04296875 8.87890625 C28.73063473 12.3428448 19.36522618 12.18436369 12.48046875 10.31640625 C7.79464795 8.08902397 3.63079086 4.68752196 0 1 C0 0.67 0 0.34 0 0 Z " fill="#F1D53C" transform="translate(255,445)"/>
<path d="M0 0 C0.66 0 1.32 0 2 0 C2.25340148 13.33173343 2.17454485 26.17818367 -2 39 C-3.21923857 35.41955998 -2.77799894 32.75239128 -2.125 29.0625 C-0.61577908 19.42592045 -0.34286136 9.73670501 0 0 Z " fill="#E4B537" transform="translate(385,470)"/>
<path d="M0 0 C0.66 0.99 1.32 1.98 2 3 C2.93814828 4.20351022 3.89785417 5.39043129 4.875 6.5625 C5.61363281 7.46162109 5.61363281 7.46162109 6.3671875 8.37890625 C9.70784687 11.6955896 12.74477011 12.31015084 17.375 12.375 C22.37106338 12.28174015 25.19495613 11.42453949 29 8 C30.83300909 5.89424357 30.83300909 5.89424357 32 4 C32.495 4.99 32.495 4.99 33 6 C29.2359224 10.98186741 26.17212866 14.36892172 19.67578125 15.3515625 C13.17380917 15.72993147 8.95515514 14.18842213 4 10 C1.33635532 7.19975815 -0.58029632 4.91723433 -1 1 C-0.67 0.67 -0.34 0.34 0 0 Z " fill="#FB5D4C" transform="translate(793,502)"/>
<path d="M0 0 C3 3 3 3 3.35644531 5.49267578 C3.34709961 6.4670459 3.33775391 7.44141602 3.328125 8.4453125 C3.32039063 10.06179688 3.32039063 10.06179688 3.3125 11.7109375 C3.291875 12.83757812 3.27125 13.96421875 3.25 15.125 C3.24226563 16.78015625 3.24226563 16.78015625 3.234375 18.46875 C3.17514021 24.70321165 2.99899325 30.83954162 2 37 C1.01 37.495 1.01 37.495 0 38 C0 25.46 0 12.92 0 0 Z " fill="#E5B63D" transform="translate(378,461)"/>
<path d="M0 0 C0.99 0 1.98 0 3 0 C3 0.66 3 1.32 3 2 C1.27734375 3.48046875 1.27734375 3.48046875 -1.0625 5.1875 C-8.16716314 10.59104661 -13.40062919 16.20620415 -18.32421875 23.66796875 C-20.0284459 26.03958556 -21.88355757 27.99422123 -24 30 C-24.33 29.34 -24.66 28.68 -25 28 C-24.34 28 -23.68 28 -23 28 C-22.690625 27.05125 -22.38125 26.1025 -22.0625 25.125 C-21 22 -21 22 -20 20 C-19.34 20 -18.68 20 -18 20 C-17.34 18.35 -16.68 16.7 -16 15 C-15.34 15 -14.68 15 -14 15 C-13.7421875 14.40316406 -13.484375 13.80632812 -13.21875 13.19140625 C-11.89941578 10.81914183 -10.6125068 9.61586875 -8.5 7.9375 C-6.06335088 5.99127814 -4.77737879 4.66606818 -3 2 C-2.01 2 -1.02 2 0 2 C0 1.34 0 0.68 0 0 Z " fill="#F9E837" transform="translate(225,408)"/>
<path d="M0 0 C0.33 0 0.66 0 1 0 C1.33 13.2 1.66 26.4 2 40 C1.01 40 0.02 40 -1 40 C-1.02481819 35.26774472 -1.04291583 30.53552779 -1.05493164 25.80322266 C-1.05994375 24.19514302 -1.06675519 22.5870679 -1.07543945 20.97900391 C-1.08764226 18.66047039 -1.09325964 16.34199741 -1.09765625 14.0234375 C-1.10281754 13.31069672 -1.10797882 12.59795593 -1.11329651 11.86361694 C-1.11374755 7.80143571 -0.78775607 3.98511894 0 0 Z " fill="#FF9924" transform="translate(407,492)"/>
<path d="M0 0 C-2.82434739 1.52476157 -5.45294604 2.42419927 -8.5625 3.1875 C-20.97571688 6.86752447 -28.89266376 14.86309274 -35 26 C-36 23 -36 23 -35.1015625 21.01953125 C-28.27736391 10.81934024 -13.65867166 -4.01725637 0 0 Z " fill="#FB5D48" transform="translate(803,439)"/>
<path d="M0 0 C-1.00417969 0.35191406 -2.00835937 0.70382812 -3.04296875 1.06640625 C-11.2251568 3.9985245 -18.77716428 7.24118708 -26.328125 11.58203125 C-28.62020231 12.7984407 -30.46809879 13.53581811 -33 14 C-33.33 13.34 -33.66 12.68 -34 12 C-26.72984838 7.4220764 -19.60272208 3.51816837 -11.375 0.9375 C-10.70082031 0.72198486 -10.02664062 0.50646973 -9.33203125 0.28442383 C-5.91865713 -0.7210562 -3.37168001 -1.36065259 0 0 Z " fill="#F6E130" transform="translate(252,381)"/>
<path d="M0 0 C0.66 0.33 1.32 0.66 2 1 C-6.91369522 11.77668618 -18.29029234 22.75651906 -32 27 C-32.99 26.67 -33.98 26.34 -35 26 C-33.71086513 25.32845067 -32.41859796 24.66291141 -31.125 24 C-30.40570313 23.62875 -29.68640625 23.2575 -28.9453125 22.875 C-27 22 -27 22 -25 22 C-25 21.34 -25 20.68 -25 20 C-24.48050781 19.76925781 -23.96101563 19.53851562 -23.42578125 19.30078125 C-18.73161251 17.10554153 -15.60197406 14.79667536 -12 11 C-9.5 9.5 -9.5 9.5 -7 8 C-4.25108753 5.44287212 -2.08446574 3.1266986 0 0 Z " fill="#E9C33C" transform="translate(347,539)"/>
<path d="M0 0 C2.02821207 5.33202922 -0.95434312 10.20391143 -3.11425781 15.12548828 C-5.70683898 20.61221325 -8.86474135 25.81087463 -12 31 C-12.99 30.67 -13.98 30.34 -15 30 C-14.61328125 29.3709375 -14.2265625 28.741875 -13.828125 28.09375 C-8.89483118 19.98556411 -4.93317321 12.2048483 -1.83203125 3.22265625 C-1 1 -1 1 0 0 Z " fill="#E5BA40" transform="translate(376,507)"/>
<path d="M0 0 C7.5958258 6.6021858 9.59135334 19.54030779 11 29 C11.04346799 30.99952758 11.05737819 33.00082323 11 35 C10.34 35 9.68 35 9 35 C8.76925781 33.79085937 8.53851563 32.58171875 8.30078125 31.3359375 C6.47986679 22.09791981 4.36118849 13.38716425 0.953125 4.58984375 C0 2 0 2 0 0 Z " fill="#E4B53C" transform="translate(375,433)"/>
<path d="M0 0 C1.12148438 0.00322266 2.24296875 0.00644531 3.3984375 0.00976562 C4.5740625 0.01814453 5.7496875 0.02652344 6.9609375 0.03515625 C8.14429688 0.03966797 9.32765625 0.04417969 10.546875 0.04882812 C13.47661257 0.06064158 16.40625022 0.07711367 19.3359375 0.09765625 C20.390625 1.95703125 20.390625 1.95703125 21.3359375 4.09765625 C20.4609375 6.34765625 20.4609375 6.34765625 19.3359375 8.09765625 C19.3359375 6.44765625 19.3359375 4.79765625 19.3359375 3.09765625 C10.0959375 3.42765625 0.8559375 3.75765625 -8.6640625 4.09765625 C-8.3340625 3.10765625 -8.0040625 2.11765625 -7.6640625 1.09765625 C-5.00228029 -0.23323485 -2.97666854 -0.01503368 0 0 Z " fill="#FEB551" transform="translate(414.6640625,407.90234375)"/>
<path d="M0 0 C0.68707031 0.42152344 1.37414062 0.84304688 2.08203125 1.27734375 C2.98308594 1.82519531 3.88414062 2.37304688 4.8125 2.9375 C5.70582031 3.48277344 6.59914063 4.02804687 7.51953125 4.58984375 C11.90402722 7.08244697 15.33179066 7.13485304 20.3125 7.125 C21.60800781 7.12757813 22.90351563 7.13015625 24.23828125 7.1328125 C27.59562923 7.01427685 30.7083127 6.64302729 34 6 C29.4135614 9.82379754 24.91486354 10.82387503 19 11 C11.6456104 9.71509515 5.12397508 7.56317294 0 2 C0 1.34 0 0.68 0 0 Z " fill="#ECC843" transform="translate(309,498)"/>
<path d="M0 0 C2.97019525 1.02958449 3.85340127 1.70182542 5.265625 4.57421875 C8.40650348 14.50787012 8.88088488 22.16135044 5 32 C3.47030777 34.11698478 2.07468491 35.37389561 0 37 C0.67052438 33.9085297 1.75623484 31.24971973 3.0625 28.375 C6.50254071 19.82511781 5.54384876 12.3556801 2 4 C1.3463453 2.66023966 0.68325044 1.32491172 0 0 Z " fill="#EDCD3B" transform="translate(298,410)"/>
<path d="M0 0 C0.78375 0.04125 1.5675 0.0825 2.375 0.125 C0.40106394 2.24515355 -1.33134799 3.96185999 -3.875 5.375 C-7.38351529 7.60769155 -10.05443789 10.33835695 -12.9375 13.3125 C-13.48728516 13.87130859 -14.03707031 14.43011719 -14.60351562 15.00585938 C-15.94863696 16.37437412 -17.28746643 17.74906833 -18.625 19.125 C-19.285 18.465 -19.945 17.805 -20.625 17.125 C-16.75176724 11.91616974 -12.11996035 8.11151785 -7.05078125 4.078125 C-2.11057546 0.10050359 -2.11057546 0.10050359 0 0 Z " fill="#F9E937" transform="translate(215.625,389.875)"/>
<path d="M0 0 C2.10049671 1.89044704 3.40541966 3.64082463 4.9375 6.0625 C7.32435596 9.50499999 7.32435596 9.50499999 11 11 C18.09613952 11.81878533 22.85495 9.201535 28.5 5.25 C28.995 4.8375 29.49 4.425 30 4 C28.50521886 7.80489745 26.30557786 9.66190835 23 12 C17.16651053 13.94449649 11.0824122 13.96683423 5.5 11.375 C2.73391476 8.74721902 1.36073115 6.55302023 0 3 C0 2.01 0 1.02 0 0 Z " fill="#FD9049" transform="translate(531,503)"/>
<path d="M0 0 C0.66 0 1.32 0 2 0 C2.33 0.99 2.66 1.98 3 3 C3.99 3.66 4.98 4.32 6 5 C6.33 5.99 6.66 6.98 7 8 C8.63502936 9.58558381 8.63502936 9.58558381 10.5625 11.0625 C12.50390625 12.59765625 12.50390625 12.59765625 14 14 C14 14.66 14 15.32 14 16 C14.66 16 15.32 16 16 16 C16 16.66 16 17.32 16 18 C16.66 18 17.32 18 18 18 C18 18.66 18 19.32 18 20 C18.639375 20.103125 19.27875 20.20625 19.9375 20.3125 C20.618125 20.539375 21.29875 20.76625 22 21 C22.33 21.99 22.66 22.98 23 24 C13.5076342 19.63394617 5.74484401 11.58951315 0 3 C0 2.01 0 1.02 0 0 Z " fill="#F8E736" transform="translate(200,531)"/>
<path d="M0 0 C3.49506783 -0.43688348 5.57061811 0.17916435 8.5625 1.84375 C13.21165012 4.24283067 17.93694047 5.51340021 23 6.75 C23.87011719 6.97042969 24.74023438 7.19085937 25.63671875 7.41796875 C27.75574811 7.9535476 29.87759543 8.47795694 32 9 C32 9.33 32 9.66 32 10 C22.9346435 10.32964933 15.38099851 8.3523994 7 5 C7 4.34 7 3.68 7 3 C6.401875 2.87625 5.80375 2.7525 5.1875 2.625 C3 2 3 2 0 0 Z " fill="#F4E13B" transform="translate(229,571)"/>
<path d="M0 0 C0.8971875 0.5259375 0.8971875 0.5259375 1.8125 1.0625 C1.1834375 1.20945312 0.554375 1.35640625 -0.09375 1.5078125 C-10.90323404 4.34041826 -16.58195749 9.50759799 -22.1875 19.0625 C-24.54703094 16.70296906 -24.67891413 15.28354383 -25.1875 12.0625 C-23.7025 13.0525 -23.7025 13.0525 -22.1875 14.0625 C-21.79820312 13.55460937 -21.40890625 13.04671875 -21.0078125 12.5234375 C-16.93710019 7.51477304 -7.15516104 -3.06649759 0 0 Z " fill="#FB694A" transform="translate(713.1875,438.9375)"/>
<path d="M0 0 C0 0.99 0 1.98 0 3 C-2.5390625 1.48632812 -2.5390625 1.48632812 -5.078125 -0.02734375 C-12.71797824 -3.89385484 -22.13086681 -2.37558738 -30 0 C-29.67 -0.99 -29.34 -1.98 -29 -3 C-18.78447184 -5.73468785 -8.91886297 -6.28374437 0 0 Z " fill="#F0D94F" transform="translate(294,508)"/>
<path d="M0 0 C0.66 0.33 1.32 0.66 2 1 C1.04882866 2.1725131 0.08882991 3.33787015 -0.875 4.5 C-1.67550781 5.47453125 -1.67550781 5.47453125 -2.4921875 6.46875 C-2.98976563 6.9740625 -3.48734375 7.479375 -4 8 C-4.66 8 -5.32 8 -6 8 C-6.2475 8.66 -6.495 9.32 -6.75 10 C-7.73418592 12.36204621 -8.79594626 14.50363108 -10 16.75 C-12.18198604 21.01627122 -13.17367829 25.30301346 -14 30 C-14.33 30 -14.66 30 -15 30 C-16.21484908 21.32250655 -11.82813938 13.19501121 -6.75146484 6.30566406 C-4.65786577 3.71672902 -2.78641678 1.85761119 0 0 Z " fill="#F82B4D" transform="translate(1033,448)"/>
<path d="M0 0 C3.95831809 -0.02892857 7.91660917 -0.04677427 11.875 -0.0625 C13.56689453 -0.07506836 13.56689453 -0.07506836 15.29296875 -0.08789062 C16.36933594 -0.09111328 17.44570313 -0.09433594 18.5546875 -0.09765625 C19.54968262 -0.10289307 20.54467773 -0.10812988 21.56982422 -0.11352539 C24 0 24 0 26 1 C25.67 4.63 25.34 8.26 25 12 C25.99 12.33 26.98 12.66 28 13 C26.68 14.32 25.36 15.64 24 17 C24 12.05 24 7.1 24 2 C16.08 2 8.16 2 0 2 C0 1.34 0 0.68 0 0 Z " fill="#FC804F" transform="translate(612,439)"/>
<path d="M0 0 C0.66 0 1.32 0 2 0 C1.49753995 5.30978051 0.13875772 9.39872 -2.375 14.125 C-2.83132813 15.01638672 -2.83132813 15.01638672 -3.296875 15.92578125 C-5.07273715 19.36366824 -6.97305859 22.70466581 -9 26 C-9.66 25.67 -10.32 25.34 -11 25 C-10.3503125 23.9790625 -10.3503125 23.9790625 -9.6875 22.9375 C-8.17962473 20.31268009 -6.97534243 17.69011732 -5.82421875 14.89453125 C-4.92851271 12.83568088 -3.91331669 10.86541936 -2.875 8.875 C-1.37603226 5.93427703 -0.41357029 3.30856228 0 0 Z " fill="#E6B639" transform="translate(379,513)"/>
<path d="M0 0 C0.33 0.66 0.66 1.32 1 2 C-2.8945169 8.2923175 -6.6733237 12.19966586 -14 14 C-23.51041667 14.99305556 -23.51041667 14.99305556 -28 12 C-26.98292969 12.06960938 -26.98292969 12.06960938 -25.9453125 12.140625 C-18.90952503 12.41348102 -13.07961202 11.75081148 -7 8 C-4.37020093 5.53043958 -2.13091975 2.90708258 0 0 Z " fill="#F7E752" transform="translate(245,488)"/>
<path d="M0 0 C2.03833424 1.2739589 4.03852126 2.61061923 6 4 C6 4.66 6 5.32 6 6 C6.61875 6.226875 7.2375 6.45375 7.875 6.6875 C10.61410209 8.37929835 11.05024472 9.99244161 12 13 C12.66 13 13.32 13 14 13 C14 13.99 14 14.98 14 16 C14.99 16.33 15.98 16.66 17 17 C17 17.99 17 18.98 17 20 C17.66 20 18.32 20 19 20 C18.67 21.32 18.34 22.64 18 24 C17.52691406 23.32195312 17.05382812 22.64390625 16.56640625 21.9453125 C12.30967708 15.95436034 7.83778349 10.43237501 2.78515625 5.09375 C1 3 1 3 0 0 Z " fill="#E7BE39" transform="translate(334,413)"/>
<path d="M0 0 C10.31407153 1.75283863 19.88421652 7.58385704 28 14 C28 14.66 28 15.32 28 16 C24.43059729 14.32738134 21.1945237 12.24469586 17.875 10.125 C13.03880997 7.07526177 8.23912498 4.65673024 2.828125 2.7890625 C1 2 1 2 0 0 Z " fill="#EAC841" transform="translate(305,397)"/>
<path d="M0 0 C0.66 0.33 1.32 0.66 2 1 C0.73299277 1.9841125 -0.5387619 2.96211497 -1.8125 3.9375 C-2.87404297 4.75541016 -2.87404297 4.75541016 -3.95703125 5.58984375 C-8.53704904 8.75119446 -13.6427124 8.49835233 -19 8 C-22.625 6.5 -22.625 6.5 -25 5 C-24.01 4.67 -23.02 4.34 -22 4 C-21.34 4.33 -20.68 4.66 -20 5 C-12.71475536 5.78456481 -7.40698061 5.57632035 -1.5234375 0.99609375 C-1.02070312 0.66738281 -0.51796875 0.33867187 0 0 Z " fill="#F93654" transform="translate(1079,509)"/>
<path d="M0 0 C0.99 0.66 1.98 1.32 3 2 C-2.14353894 7.45010749 -7.63663056 12.99508217 -14 17 C-14.99 16.67 -15.98 16.34 -17 16 C-16.35933594 15.5153125 -15.71867187 15.030625 -15.05859375 14.53125 C-9.37842298 10.12932928 -4.50102614 5.60392659 0 0 Z " fill="#E7BA3A" transform="translate(356,552)"/>
<path d="M0 0 C5.70004831 1.98666179 10.84969389 4.92673909 16.0625 7.9375 C15.7325 8.9275 15.4025 9.9175 15.0625 10.9375 C14.3214502 10.54425537 14.3214502 10.54425537 13.56542969 10.14306641 C11.31471185 8.94905584 9.06360988 7.75577126 6.8125 6.5625 C6.03519531 6.15 5.25789063 5.7375 4.45703125 5.3125 C3.70292969 4.91289062 2.94882812 4.51328125 2.171875 4.1015625 C1.48061523 3.73498535 0.78935547 3.3684082 0.07714844 2.99072266 C-1.91619154 1.94863969 -3.92255537 0.93707057 -5.9375 -0.0625 C-3.36634733 -1.34807633 -2.68478846 -0.88845622 0 0 Z " fill="#E8C030" transform="translate(316.9375,383.0625)"/>
<path d="M0 0 C0 0.66 0 1.32 0 2 C-0.6290625 2.18433594 -1.258125 2.36867188 -1.90625 2.55859375 C-9.30827356 5.06680956 -13.29378124 8.84773637 -18 15 C-18.33 14.01 -18.66 13.02 -19 12 C-15.00877603 5.20375499 -8.04498802 0 0 0 Z " fill="#F9EA43" transform="translate(220,452)"/>
<path d="M0 0 C0.33 0.99 0.66 1.98 1 3 C-2.3846426 8.94539194 -7.1057757 13.61627864 -13 17 C-15.9375 17.3125 -15.9375 17.3125 -18 17 C-16.19363327 15.19363327 -14.75536287 14.17776438 -12.5625 12.9375 C-11.96566406 12.59589844 -11.36882813 12.25429688 -10.75390625 11.90234375 C-9 11 -9 11 -6 10 C-4.99083967 8.23408113 -4.99083967 8.23408113 -4 6 C-2.68457624 3.98817543 -1.3540932 1.98600337 0 0 Z " fill="#FD903F" transform="translate(565,517)"/>
<path d="M0 0 C2.64 0.66 5.28 1.32 8 2 C8 2.66 8 3.32 8 4 C8.97839844 4.29003906 8.97839844 4.29003906 9.9765625 4.5859375 C14.6771398 5.98640448 19.35840891 7.41208726 24 9 C24 9.33 24 9.66 24 10 C18.4690278 10.46091435 14.66639903 8.92509187 9.75 6.6875 C9.03070313 6.37876953 8.31140625 6.07003906 7.5703125 5.75195312 C4.02603637 4.17561308 2.1937364 3.2906046 0 0 Z " fill="#F4E039" transform="translate(229,559)"/>
<path d="M0 0 C0.99 0.33 1.98 0.66 3 1 C2.34 1 1.68 1 1 1 C1 1.66 1 2.32 1 3 C-4.50928814 7.22411966 -10.16734729 10.63346946 -17 12 C-17 11.34 -17 10.68 -17 10 C-15.2335343 8.9923048 -13.46166177 7.99408286 -11.6875 7 C-10.70136719 6.443125 -9.71523438 5.88625 -8.69921875 5.3125 C-6 4 -6 4 -3 4 C-2.67 3.01 -2.34 2.02 -2 1 C-1.34 0.67 -0.68 0.34 0 0 Z " fill="#EAC842" transform="translate(329,548)"/>
<path d="M0 0 C-2.29540292 2.29540292 -3.52716155 2.53084726 -6.625 3.3125 C-11.70732022 4.74559611 -15.70792788 6.96677585 -20 10 C-20 9.01 -20 8.02 -20 7 C-18.68 6.67 -17.36 6.34 -16 6 C-16 5.34 -16 4.68 -16 4 C-10.45108785 1.18150494 -6.258654 -0.5326514 0 0 Z " fill="#FC734A" transform="translate(662,438)"/>
<path d="M0 0 C4.22732254 3.66367954 5.77451426 6.94654722 6.1875 12.5390625 C6.30248895 17.52670803 6.30248895 17.52670803 6 20 C5.34 20.66 4.68 21.32 4 22 C3.95101563 21.11957031 3.90203125 20.23914063 3.8515625 19.33203125 C3.77679688 18.17058594 3.70203125 17.00914062 3.625 15.8125 C3.52058594 14.08966797 3.52058594 14.08966797 3.4140625 12.33203125 C2.84764674 7.77398745 1.53540988 4.80311482 -1 1 C-0.67 0.67 -0.34 0.34 0 0 Z " fill="#EFCD45" transform="translate(294,517)"/>
<path d="M0 0 C0.66 0 1.32 0 2 0 C3.21875 1.35546875 3.21875 1.35546875 4.5 3.1875 C4.9228125 3.77917969 5.345625 4.37085938 5.78125 4.98046875 C8.3976344 9.31595187 9.24695191 12.75149557 9.125 17.8125 C9.10695313 18.78832031 9.08890625 19.76414062 9.0703125 20.76953125 C9.03550781 21.87361328 9.03550781 21.87361328 9 23 C8.67 23 8.34 23 8 23 C7.92523438 22.23816406 7.85046875 21.47632813 7.7734375 20.69140625 C6.90266262 13.8532623 5.44719181 9.23484864 1.2421875 3.7421875 C0 2 0 2 0 0 Z " fill="#EFCD44" transform="translate(296,511)"/>
<path d="M0 0 C3.45682257 3.79250575 4.73814592 6.80382231 5.75 11.8125 C5.99234375 12.97394531 6.2346875 14.13539063 6.484375 15.33203125 C6.65453125 16.21246094 6.8246875 17.09289062 7 18 C6.34 18.33 5.68 18.66 5 19 C4.15919981 16.58570231 3.32718598 14.16896007 2.5 11.75 C2.14228516 10.72712891 2.14228516 10.72712891 1.77734375 9.68359375 C0.60578713 6.23586997 0 3.68297096 0 0 Z " fill="#E5B539" transform="translate(372,439)"/>
<path d="M0 0 C0.33 0.66 0.66 1.32 1 2 C0.360625 2.9075 -0.27875 3.815 -0.9375 4.75 C-3.81724691 9.28778301 -4.12594384 12.42071771 -4.0625 17.75 C-4.05347656 18.73484375 -4.04445313 19.7196875 -4.03515625 20.734375 C-4.02355469 21.48203125 -4.01195312 22.2296875 -4 23 C-6.56251189 20.43748811 -6.29778372 19.36893409 -6.3125 15.8125 C-6.20442012 9.92214662 -5.27774317 5.6151866 -1.3125 1.0625 C-0.6628125 0.5365625 -0.6628125 0.5365625 0 0 Z " fill="#EDD137" transform="translate(313,464)"/>
<path d="M0 0 C1.9375 0.8125 1.9375 0.8125 4 2 C4.33 2.99 4.66 3.98 5 5 C7.24743756 6.15020525 7.24743756 6.15020525 10 7 C11.093125 7.37125 12.18625 7.7425 13.3125 8.125 C14.6428125 8.558125 14.6428125 8.558125 16 9 C14.02 9.99 14.02 9.99 12 11 C2.22095672 5.03416856 2.22095672 5.03416856 0 0 Z " fill="#F3DA42" transform="translate(258,439)"/>
<path d="M0 0 C-4.75 3 -4.75 3 -7 3 C-7 3.66 -7 4.32 -7 5 C-9.97 5 -12.94 5 -16 5 C-13.1550248 3.5775124 -10.31702086 2.16212314 -7.4375 0.8125 C-6.29087891 0.26529297 -6.29087891 0.26529297 -5.12109375 -0.29296875 C-3 -1 -3 -1 0 0 Z " fill="#EBCC4A" transform="translate(326,578)"/>
<path d="M0 0 C1.485 0.99 1.485 0.99 3 2 C3.56737589 9.14893617 3.56737589 9.14893617 1 13 C-0.32229189 10.35541621 -0.09677194 8.32238699 -0.0625 5.375 C-0.05347656 4.37210937 -0.04445313 3.36921875 -0.03515625 2.3359375 C-0.02355469 1.56507813 -0.01195312 0.79421875 0 0 Z " fill="#E5B528" transform="translate(355,474)"/>
<path d="M0 0 C2.31 0.33 4.62 0.66 7 1 C7.25 7.625 7.25 7.625 5 11 C4.34 11 3.68 11 3 11 C4.875 5.25 4.875 5.25 6 3 C3.03 2.505 3.03 2.505 0 2 C0 1.34 0 0.68 0 0 Z " fill="#F82B50" transform="translate(1101,505)"/>
<path d="M0 0 C1.12864571 2.82503443 0.99492545 4.01633704 0.07421875 6.98046875 C-0.38339844 8.03878906 -0.84101562 9.09710938 -1.3125 10.1875 C-1.76238281 11.25355469 -2.21226562 12.31960938 -2.67578125 13.41796875 C-4 16 -4 16 -6 17 C-4.46745644 11.12524968 -2.32330984 5.60526694 0 0 Z " fill="#F93748" transform="translate(942,497)"/>
<path d="M0 0 C3.42931954 3.7559214 4.56429083 8.23466745 6 13 C6.66 13 7.32 13 8 13 C7.67 13.66 7.34 14.32 7 15 C3.17613546 11.57864751 1.17584253 9.02405444 0 4 C0 2.68 0 1.36 0 0 Z " fill="#FBEE48" transform="translate(198,484)"/>
<path d="M0 0 C3.59253891 3.45436433 6.79239749 7.19364503 10 11 C9.67 11.66 9.34 12.32 9 13 C5.02408145 10.12850327 2.44710903 7.25978238 0 3 C0 2.01 0 1.02 0 0 Z " fill="#F3DB43" transform="translate(256,538)"/>
<path d="M0 0 C-2.9541184 1.5832978 -5.84447502 2.635437 -9.0625 3.5625 C-11.72779038 4.3360354 -14.36652518 5.12217506 -17 6 C-17 5.34 -17 4.68 -17 4 C-15.56328432 3.35242375 -14.12559584 2.70700547 -12.6875 2.0625 C-11.88699219 1.70285156 -11.08648438 1.34320313 -10.26171875 0.97265625 C-6.28299166 -0.73840255 -4.18841556 -1.01880379 0 0 Z " fill="#FA6456" transform="translate(803,439)"/>
<path d="M0 0 C0.33 0.66 0.66 1.32 1 2 C-4.0940919 9.68490153 -4.0940919 9.68490153 -7.875 11 C-8.57625 11 -9.2775 11 -10 11 C-9.278125 10.29875 -8.55625 9.5975 -7.8125 8.875 C-5.00176187 6.07229255 -2.50483774 3.07737208 0 0 Z " fill="#F4E049" transform="translate(245,488)"/>
<path d="M0 0 C0 3.56172735 -0.74670717 4.36534757 -2.875 7.125 C-3.40867187 7.82882812 -3.94234375 8.53265625 -4.4921875 9.2578125 C-6 11 -6 11 -8 12 C-7.25 9.125 -7.25 9.125 -6 6 C-4 4.875 -4 4.875 -2 4 C-0.73195434 1.9664052 -0.73195434 1.9664052 0 0 Z " fill="#E3B936" transform="translate(367,540)"/>
<path d="M0 0 C4.10958767 1.45044271 7.43258745 3.51110752 11 6 C10.01 6.495 10.01 6.495 9 7 C6.375 6.0625 6.375 6.0625 4 5 C4 4.34 4 3.68 4 3 C2.68 2.67 1.36 2.34 0 2 C0 1.34 0 0.68 0 0 Z " fill="#F8E53C" transform="translate(217,563)"/>
<path d="M0 0 C0.33 0.66 0.66 1.32 1 2 C-2.96 2.99 -6.92 3.98 -11 5 C-10.67 4.01 -10.34 3.02 -10 2 C-6.7 1.34 -3.4 0.68 0 0 Z " fill="#F4E059" transform="translate(275,503)"/>
<path d="M0 0 C0.66 0.66 1.32 1.32 2 2 C-2.30769231 7.78461538 -2.30769231 7.78461538 -5.8125 8.875 C-6.8953125 8.936875 -6.8953125 8.936875 -8 9 C-4 5 -4 5 -2.3125 3.375 C-0.88435687 2.01378527 -0.88435687 2.01378527 0 0 Z " fill="#FA574A" transform="translate(824,506)"/>
<path d="M0 0 C3.84375 1.7109375 3.84375 1.7109375 5.25 4.3125 C6.00511726 7.01833686 6.1595955 9.20707882 6 12 C4 8 2 4 0 0 Z " fill="#EFCD47" transform="translate(298,410)"/>
<path d="M0 0 C0.33 0.99 0.66 1.98 1 3 C-1.25 5.5625 -1.25 5.5625 -4 8 C-6.3125 7.8125 -6.3125 7.8125 -8 7 C-5 5 -5 5 -2 5 C-1.34 3.35 -0.68 1.7 0 0 Z " fill="#F1D83E" transform="translate(294,439)"/>
<path d="M0 0 C0 0.66 0 1.32 0 2 C-4.455 2.495 -4.455 2.495 -9 3 C-9.33 2.34 -9.66 1.68 -10 1 C-6.61981469 -0.04005702 -3.5219721 -0.08004482 0 0 Z " fill="#FA3056" transform="translate(1059,438)"/>
<path d="M0 0 C0 0.99 0 1.98 0 3 C-2.8125 5.75 -2.8125 5.75 -6 8 C-6.99 7.67 -7.98 7.34 -9 7 C-6.03 4.69 -3.06 2.38 0 0 Z " fill="#E7C344" transform="translate(348,561)"/>
<path d="M0 0 C3.35915158 1.43963639 5.71624938 3.12416589 8 6 C7.60546875 8.1328125 7.60546875 8.1328125 7 10 C6.01886757 8.70982586 5.04015801 7.41780894 4.0625 6.125 C3.24458984 5.04605469 3.24458984 5.04605469 2.41015625 3.9453125 C1 2 1 2 0 0 Z " fill="#E9BF46" transform="translate(346,458)"/>
<path d="M0 0 C4.0013028 0.61558505 6.77824353 2.63737859 10 5 C10.33 5.66 10.66 6.32 11 7 C6.89188572 5.55007731 3.53144334 3.54592427 0 1 C0 0.67 0 0.34 0 0 Z " fill="#EAC343" transform="translate(335,388)"/>
<path d="M0 0 C0.33 0.99 0.66 1.98 1 3 C-0.32 4.32 -1.64 5.64 -3 7 C-3.99 6.67 -4.98 6.34 -6 6 C-4.02 4.02 -2.04 2.04 0 0 Z " fill="#F92C4E" transform="translate(1100,520)"/>
<path d="M0 0 C0.33 0.99 0.66 1.98 1 3 C-0.40445835 5.2636564 -2.1967913 7.0208685 -4 9 C-4.99 8.67 -5.98 8.34 -7 8 C-4.69 5.36 -2.38 2.72 0 0 Z " fill="#FA4E4A" transform="translate(848,516)"/>
<path d="M0 0 C6.57142857 4 6.57142857 4 8 8 C4.63820226 6.55922954 2.40843732 4.75249979 0 2 C0 1.34 0 0.68 0 0 Z " fill="#FB6948" transform="translate(680,442)"/>
<path d="M0 0 C2.12038635 2.61514317 4.13091744 5.19637616 6 8 C4.68 8 3.36 8 2 8 C0.23537317 4.91190305 0 3.76687864 0 0 Z " fill="#E8C232" transform="translate(365,414)"/>
<path d="M0 0 C2.46800047 1.15173355 4.04783565 2.04783565 6 4 C6.125 6.625 6.125 6.625 6 9 C3.75972706 6.11964908 1.83827868 3.15133488 0 0 Z " fill="#F6E244" transform="translate(245,461)"/>
</svg>
